<?xml version="1.0" encoding="UTF-8"?>
<svg xmlns="http://www.w3.org/2000/svg" xmlns:xlink="http://www.w3.org/1999/xlink" version="1.1" viewBox="0 0 595.3 841.9">
  <defs>
    <style>
      .cls-1, .cls-2, .cls-3, .cls-4, .cls-5, .cls-6, .cls-7 {
        fill: none;
      }

      .cls-2 {
        stroke: #f5e841;
      }

      .cls-2, .cls-8, .cls-4, .cls-9, .cls-6 {
        stroke-linecap: round;
        stroke-linejoin: round;
      }

      .cls-10, .cls-11, .cls-12 {
        fill: #323232;
      }

      .cls-13 {
        fill: #d9e9f2;
      }

      .cls-8 {
        stroke: #fff;
        stroke-width: 17px;
      }

      .cls-8, .cls-9 {
        fill: #fff;
      }

      .cls-3, .cls-5 {
        stroke: #f4ca40;
      }

      .cls-3, .cls-5, .cls-7 {
        stroke-miterlimit: 10;
      }

      .cls-4, .cls-9, .cls-6 {
        stroke: #323232;
        stroke-width: 12px;
      }

      .cls-11, .cls-12, .cls-14, .cls-15 {
        font-family: Bungee-Regular, Bungee;
      }

      .cls-11, .cls-14, .cls-15 {
        font-size: 50px;
      }

      .cls-16 {
        opacity: .7;
      }

      .cls-16, .cls-6, .cls-17 {
        display: none;
      }

      .cls-5 {
        stroke-width: 2px;
      }

      .cls-18 {
        clip-path: url(#clippath-1);
      }

      .cls-12 {
        font-size: 77px;
      }

      .cls-14 {
        fill: #c51b19;
      }

      .cls-19 {
        fill: #65c5ec;
      }

      .cls-7 {
        stroke: #c51d1a;
      }

      .cls-20 {
        fill: #f4a63c;
      }

      .cls-21, .cls-15 {
        fill: #c51a19;
      }

      .cls-22 {
        fill: #99a9b1;
      }

      .cls-23 {
        fill: #f6f5f4;
      }

      .cls-24 {
        fill: #ebf3f8;
      }
    </style>
    <path id="path" d="M86.5,297.4c4.8-7,86.4-121.8,228.7-115.2,127.9,5.9,197.5,105,205,116"/>
    <clipPath id="clippath-1">
      <path class="cls-1" d="M338.1,269.2c-10.6-4.7-21.4,5.6-32,.9-.6-.3-1.1-1.1-1.1-1.7,0-9.4.1-18.8.2-28.3,0-.6.5-.8,1.1-.6,10.6,4.7,21.4-5.6,32-.9.6.3,1.1,1.1,1.1,1.7,0,9.4-.1,18.8-.2,28.3,0,.6-.5.8-1.1.6Z"/>
    </clipPath>
    <path id="path-2" d="M565.5,445.8c0,143.4-116.3,259.7-259.7,259.7S46.1,589.3,46.1,445.8,162.4,186.1,305.8,186.1s259.7,116.3,259.7,259.7Z"/>
  </defs>
  <!-- Generator: Adobe Illustrator 28.7.5, SVG Export Plug-In . SVG Version: 1.2.0 Build 176)  -->
  <g>
    <g id="Ebene_1">
      <path id="Hintergrund_x5F_blau" class="cls-19" d="M540.2,444.8c0,74.3-25.1,120.5-79,163.5-40,31.9-109.4,17.2-164.6,17.2s-122.7,7.8-147.2-12.6c-51.2-42.8-78.1-96.1-78.1-168,0-129.5,104.9-234.4,234.4-234.4s234.4,104.9,234.4,234.4Z"/>
      <g id="Matterhorn">
        <g>
          <g class="cls-16">
            <circle class="cls-22" cx="307.1" cy="289.4" r="152.8"/>
          </g>
          <g class="cls-17">
            <circle class="cls-20" cx="307.1" cy="289.4" r="114.6"/>
          </g>
          <polygon class="cls-1" points="378.8 397.3 378.8 397.3 378.8 397.3 378.8 397.3"/>
          <path class="cls-13" d="M460,485.6c1.7,1.2,33,33.1,33,33.1,0,0-19.1-29-16.5-27.5,2.6,1.5,23.8,22.4,23.9,19.4,0-3-24.1-30.8-24.1-30.8l-16.3,5.8Z"/>
          <path class="cls-20" d="M402.6,404.5l-.3-1.4c0,0,0,.5.3,1.4Z"/>
          <path class="cls-24" d="M373.1,469.3l-39.5-56.5,20.6,10.9-19.1-26.8,28,16.4-17.6-49.3,18.5,16.5-.9-26.8-17.6-35-16.9-12.4-22.2-12.8,9.1,47.7-22.4,48.6-4.3,46.3-18.6,19.6,41.9,67.7h1l-31-62.9s35.3,43.1,52.3,62.9h3.7c-10-17.3-30.8-51.6-30.8-51.6l44,51.6h2.1l-15.6-33.6,32.1,33.6h2l-20.1-56.4,21.3,2.2Z"/>
          <path class="cls-24" d="M410.2,453.2l-10.4-43.8-21-12.1h0s-4-2.3-4-2.3c0,0,10.6,50.5,10,53.7-.6,3.2,6.6,22.6,6.6,22.6l3.1-14.4,9.8,30.9v-25l33.2,56-16.9-47.4-10.4-18Z"/>
          <path class="cls-20" d="M453.5,479.8l-.6-.7c.3.5.5.8.5.8,0,0,0,0,.1,0Z"/>
          <path class="cls-13" d="M259.7,347.5l1.7,26.8-18.1,15-6.4,36.6-15.1,24.7-39.1,20,60.6-24.1s-2.2,21.2.4,16.5c2.6-4.7,5.5-41.2,5.5-41.2,0,0,4.9,18.1,6.2,12.8,1.3-5.3,0-39.6,0-39.6l15.5-12.5-3.5-30.1,15.6-6.8-23.3,1.9Z"/>
          <polygon class="cls-10" points="352.5 523.5 375 523.5 337.9 489.9 352.5 523.5"/>
          <path class="cls-10" d="M336.3,523.5h16.7l-45.7-51.6s19,34.3,29,51.6Z"/>
          <path class="cls-10" d="M311.8,523.5l24.4-.5c-17-19.8-54.1-62.5-54.1-62.5l29.6,63Z"/>
          <path class="cls-10" d="M500.4,489.9s-16.5-13.5-21-15.4c-4.3-1.8-24.3,4.6-26,5.2,0,0-.1,0-.1,0,0,0-.2-.3-.5-.8-2.2-3.6-11.6-18.9-11.5-20.7,0-2-17.8-11.8-17.8-11.8l-8.8-10.3s-10.1-25.4-12.1-31.7c-.3-.9-.4-1.4-.3-1.4.8.2-18.1-8.1-18.1-8.1l-12.8-20.6-1.4-23.3s-20.7-36.2-22.3-38.5c-1.5-2.2-18.4-12.5-18.4-12.5l-25.5-15.8-22,52.4-28.4,6.7-.8,24.7-15.6,20.4s-16,44.9-19.1,47.7c-3.1,2.9-43.8,10.3-43.8,10.3l-17.7,26.9-28.7,9.7-45.6,26.2,5.6,15.5,166.3-1.2h58.2l-41.9-67.7,18.6-19.6,4.3-46.3,22.4-48.6-9.1-47.7,22.2,12.8,16.9,12.4,17.6,35,.9,26.8-18.5-16.5,17.6,49.3-28-16.4,19.1,26.8-20.6-10.9,39.5,56.5-21.3-2.2,20.1,56.4,156.3,1.2,2.4-5.2,2.8-11.7-33-17.9ZM270.9,382.5l-15.5,12.5s1.3,34.3,0,39.6c-1.3,5.3-6.2-12.8-6.2-12.8,0,0-2.9,36.6-5.5,41.2-2.6,4.6-.4-16.5-.4-16.5l-61.2,24.4,39.7-20.3,15.1-24.7,6.4-36.6,18.1-15-1.7-26.8,23.3-1.9-15.6,6.8,3.5,30.1ZM404.3,462.8v25l-9.8-30.9-3.1,14.4s-7.3-19.3-6.6-22.6c.6-3.2-10-53.7-10-53.7l4,2.3h0s21,12.1,21,12.1l10.4,43.8,10.4,18,13.7,38.3-29.9-46.8ZM476.5,491.2c-2.6-1.5,16.5,27.5,16.5,27.5,0,0-31.3-31.9-33-33.1l16.3-5.8s24.2,27.7,24.1,30.8c0,3-21.3-17.9-23.9-19.4Z"/>
        </g>
        <polygon class="cls-10" points="479.5 589.8 426.4 604.4 139.7 604.4 131.5 604.4 97 547.5 87.5 522.8 524.2 522.7 512.8 547.7 479.5 589.8"/>
      </g>
      <path id="Rand_x5F_grau" class="cls-4" d="M540.2,444.8c0,34.6-7.5,67.4-20.9,97-36.9,81.1-390.1,81.1-427,0s-20.9-62.3-20.9-96.9c0-129.5,105-234.4,234.4-234.4s234.4,105,234.4,234.4Z"/>
      <path id="Kreis" class="cls-6" d="M536.5,445.4c0,68.6-20.1,103-34.9,122.8-69.1,92-215.1,55.4-223.9,55.4s-135.7-15.3-164.2-40.3-33.8-24.3-45-130.5c-8.9-83.5,65.4-242,234.1-241.4,133.3.5,234,104.8,234,234Z"/>
      <g id="wolke_x5F_links">
        <g id="weiss_x5F_links">
          <path class="cls-8" d="M326.3,648.1c51.7,0,37.3-134.8-46.7-96.7h0"/>
          <path class="cls-8" d="M326.3,648.1H68.9c-59.4,0-45.4-128.3,45.4-101.9,0,0,10.7-45.1,81.4-45.1s83.9,50.3,83.9,50.3"/>
          <path class="cls-8" d="M279.6,551.4"/>
        </g>
        <g id="wolke">
          <g>
            <path class="cls-9" d="M326.3,648c51.7,0,37.3-134.8-46.7-96.7h0"/>
            <path class="cls-9" d="M326.3,648H68.9c-59.4,0-45.4-128.3,45.4-101.9,0,0,10.7-45.1,81.4-45.1s83.9,50.3,83.9,50.3"/>
            <path class="cls-9" d="M279.6,551.2"/>
          </g>
          <path class="cls-9" d="M114.3,546.1c8.2,2.5,14.8,8.4,14.8,8.4"/>
          <line class="cls-9" x1="279.6" y1="551.2" x2="283.2" y2="563.9"/>
        </g>
      </g>
      <text class="cls-12" transform="translate(56 629.3)"><tspan x="0" y="0">ETDS</tspan></text>
      <g id="Wolke_x5F_rechts">
        <path id="weiss_x5F_rechts" class="cls-8" d="M399.2,550.8c-62.9-32.2-92.8,24.1-90.7,50.3-41.4,0-48.4,69.6,1.1,69.6h214.5c21.3,0,38.5-18.6,38.5-41.5h0c0-14.1-6-23-17.2-30.5-7-4.6-21.8-6.8-21.8-6.8,0,0-1.2-20.7-11.3-36.8-7.8-12.4-20.6-24.6-41.5-28.9-2.2-.4-4.5-.8-6.9-1.1-15-1.6-27.8,1.2-38.4,6.4-29.2,14.1-42.1,45.3-42.1,45.3"/>
        <g id="wolke_x5F_rechts">
          <path id="wolke_x5F_rechts-2" data-name="wolke_x5F_rechts" class="cls-9" d="M399.2,550.8c-62.9-32.2-92.8,24.1-90.7,50.3-41.4,0-48.4,69.6,1.1,69.6h214.5c21.3,0,38.5-18.6,38.5-41.5h0c0-14.1-6-23-17.2-30.5-7-4.6-21.8-6.8-21.8-6.8,0,0-1.2-20.7-11.3-36.8-7.8-12.4-20.6-24.6-41.5-28.9-2.2-.4-4.5-.8-6.9-1.1-15-1.6-27.8,1.2-38.4,6.4-29.2,14.1-42.1,45.3-42.1,45.3"/>
          <text id="Zürich" class="cls-11" transform="translate(318 651.6)"><tspan x="0" y="0">ZÜrich</tspan></text>
        </g>
      </g>
      <g class="cls-17">
        <text>
          <textPath startOffset="3.6%" xlink:href="#path"><tspan class="cls-14"><tspan x="0" y="0">above the clouds</tspan></tspan>
          </textPath></text>
      </g>
      <g>
        <g class="cls-18">
          <path class="cls-21" d="M305.1,239c0,2.6,0,5.2,0,7.8,0,4.9,0,9.9,0,14.8,0,2.6,0,5.2,0,7.8,11.4,6.2,22.9-6,34.3.2,0-2.6,0-5.2,0-7.8,0-4.9,0-9.9,0-14.8,0-2.6,0-5.2,0-7.8-11.4-6.2-22.9,6-34.3-.2Z"/>
          <path class="cls-23" d="M333.2,249.4c-2.6-.2-5.2.3-7.7.9,0-2.6,0-5.2,0-7.7-2.2.5-4.3,1.1-6.5,1.6,0,2.6,0,5.2,0,7.7-2.6.6-5.2,1-7.7.9,0,2.2,0,4.3,0,6.5,2.6.2,5.2-.3,7.7-.9,0,2.6,0,5.2,0,7.7,2.2-.5,4.3-1.1,6.5-1.6,0-2.6,0-5.2,0-7.7,2.6-.6,5.2-1,7.7-.9,0-2.2,0-4.3,0-6.5Z"/>
        </g>
        <g>
          <path class="cls-10" d="M304.8,299.1c0,0-.2,0-.3,0-.5,0-.9-.4-.9-.9l.3-61.1c0-.5.4-.9.9-.9.5,0,.9.4.9.9l-.3,61.1c0,.4-.3.8-.6.9Z"/>
          <circle class="cls-10" cx="304.8" cy="236.2" r="2.6"/>
        </g>
      </g>
      <g id="Hilfslinien" class="cls-17">
        <circle class="cls-2" cx="303.1" cy="445.8" r="233.9"/>
        <circle class="cls-3" cx="303.4" cy="443.5" r="319.5"/>
        <line class="cls-5" x1="303.4" y1="763" x2="303.4" y2="125.5"/>
        <line class="cls-5" x1="-16.1" y1="443.5" x2="622.9" y2="445.8"/>
        <line class="cls-7" x1="-5.5" y1="290.1" x2="613.8" y2="293.7"/>
      </g>
      <text>
        <textPath startOffset="79.8%" xlink:href="#path-2"><tspan class="cls-15"><tspan x="0" y="0">above the clouds</tspan></tspan>
        </textPath></text>
    </g>
  </g>
</svg>