<?xml version="1.0" standalone="no"?>
<!DOCTYPE svg PUBLIC "-//W3C//DTD SVG 20010904//EN"
 "http://www.w3.org/TR/2001/REC-SVG-20010904/DTD/svg10.dtd">
<svg version="1.0" xmlns="http://www.w3.org/2000/svg"
 width="1510.000000pt" height="1510.000000pt" viewBox="0 0 1510.000000 1510.000000"
 preserveAspectRatio="xMidYMid meet">
<metadata>
Created by potrace 1.14, written by Peter Selinger 2001-2017
</metadata>
<g transform="translate(0.000000,1510.000000) scale(0.100000,-0.100000)"
fill="#000000" stroke="none">
<path d="M7440 15091 c0 -5 -10 -13 -22 -16 -23 -7 -38 -13 -143 -60 -33 -14
-91 -40 -130 -57 -38 -17 -93 -41 -120 -54 -28 -13 -54 -24 -59 -24 -4 0 -22
-6 -39 -14 -18 -8 -68 -29 -112 -46 -44 -18 -89 -36 -100 -41 -11 -4 -49 -18
-85 -29 -36 -12 -73 -25 -82 -31 -10 -5 -27 -9 -38 -9 -10 0 -34 -6 -52 -14
-51 -21 -99 -37 -143 -47 -22 -5 -49 -13 -60 -18 -11 -6 -33 -12 -50 -14 -31
-5 -87 -23 -117 -38 -10 -5 -32 -9 -50 -9 -18 0 -53 -6 -78 -14 -55 -17 -139
-34 -335 -66 -38 -6 -95 -15 -125 -20 -30 -5 -162 -14 -292 -20 -245 -11 -650
-1 -773 19 -79 13 -213 31 -300 40 -38 4 -83 13 -98 19 -16 7 -43 12 -61 12
-19 0 -50 7 -69 15 -20 8 -50 15 -67 15 -17 0 -40 5 -51 10 -18 10 -46 17
-164 41 -27 6 -54 15 -60 20 -5 5 -20 9 -35 9 -14 1 -36 7 -50 15 -14 8 -39
14 -55 15 -17 0 -35 4 -40 9 -6 5 -55 25 -110 45 -144 50 -175 62 -236 90 -67
31 -165 84 -204 111 -17 12 -48 29 -70 39 -22 11 -48 23 -58 28 -16 8 -59 19
-139 35 -38 7 -93 -14 -131 -50 -18 -18 -83 -86 -144 -152 -61 -66 -171 -181
-244 -257 -119 -121 -354 -362 -726 -744 -65 -66 -181 -186 -258 -266 -257
-265 -669 -689 -782 -804 -62 -63 -113 -119 -113 -124 0 -6 -4 -10 -8 -10 -8
0 -125 -112 -150 -143 -18 -24 -16 -154 3 -173 8 -9 15 -24 15 -35 0 -10 5
-19 10 -19 6 0 13 -8 17 -17 3 -10 42 -56 87 -103 96 -102 168 -185 201 -235
14 -19 43 -60 65 -90 22 -30 40 -58 40 -63 0 -5 9 -17 20 -27 11 -10 20 -27
20 -37 0 -10 7 -21 16 -25 8 -3 20 -15 25 -27 5 -11 18 -34 29 -51 11 -16 23
-38 26 -47 4 -10 10 -18 14 -18 4 0 17 -21 29 -47 12 -27 29 -59 37 -73 52
-86 101 -179 162 -310 90 -193 102 -221 102 -239 0 -10 6 -24 14 -30 8 -6 16
-24 19 -39 6 -34 46 -150 60 -177 6 -11 14 -36 18 -55 4 -19 17 -69 29 -110
12 -41 26 -95 30 -120 5 -25 16 -81 24 -125 9 -44 20 -118 26 -165 5 -47 14
-119 20 -160 12 -98 13 -531 0 -601 -5 -30 -14 -99 -19 -154 -16 -165 -30
-247 -66 -395 -7 -30 -16 -76 -20 -103 -4 -26 -11 -50 -16 -53 -5 -3 -9 -23
-9 -44 0 -21 -4 -41 -9 -44 -5 -4 -14 -28 -20 -54 -20 -83 -36 -141 -44 -148
-4 -4 -7 -17 -7 -28 0 -12 -7 -34 -15 -50 -8 -15 -15 -36 -15 -46 0 -10 -6
-31 -14 -47 -8 -15 -19 -44 -26 -63 -39 -113 -81 -227 -88 -240 -5 -9 -13 -30
-17 -48 -3 -18 -11 -32 -16 -32 -5 0 -9 -11 -9 -24 0 -13 -7 -29 -15 -36 -8
-7 -15 -21 -15 -30 0 -10 -8 -33 -17 -52 -9 -18 -22 -45 -30 -60 -7 -14 -13
-32 -13 -39 0 -8 -12 -39 -27 -69 -15 -30 -32 -68 -39 -85 -7 -16 -20 -46 -28
-67 -9 -20 -16 -41 -16 -46 0 -6 -8 -25 -17 -44 -29 -59 -33 -68 -33 -79 0 -6
-6 -25 -14 -42 -7 -18 -20 -50 -29 -72 -8 -22 -25 -64 -37 -94 -12 -29 -33
-88 -47 -130 -13 -42 -31 -89 -38 -106 -7 -16 -21 -57 -30 -90 -10 -33 -21
-64 -26 -69 -5 -6 -9 -21 -9 -35 -1 -15 -7 -37 -15 -51 -8 -14 -14 -35 -15
-48 0 -12 -4 -30 -9 -40 -12 -22 -39 -112 -51 -165 -4 -23 -16 -67 -25 -97 -9
-30 -20 -76 -25 -103 -5 -26 -13 -62 -19 -80 -5 -17 -17 -70 -26 -117 -9 -47
-21 -107 -27 -135 -13 -61 -24 -141 -40 -302 -6 -68 -15 -123 -20 -123 -12 0
-10 -714 1 -725 6 -6 15 -57 20 -115 6 -58 17 -139 26 -180 9 -41 19 -95 24
-120 4 -25 13 -65 20 -90 34 -126 43 -157 53 -185 5 -16 12 -41 15 -55 3 -14
9 -29 13 -35 4 -5 11 -25 15 -43 3 -17 11 -32 16 -32 5 0 9 -9 9 -20 0 -10 6
-34 14 -52 8 -18 22 -53 31 -78 9 -25 21 -52 26 -60 5 -8 12 -22 15 -30 11
-27 85 -184 101 -215 46 -89 56 -106 64 -111 5 -3 9 -12 9 -19 0 -8 13 -34 29
-57 15 -24 52 -80 81 -126 29 -45 66 -97 81 -115 16 -18 29 -35 29 -38 0 -4
36 -54 81 -110 148 -189 341 -391 484 -507 38 -31 77 -64 86 -73 42 -42 305
-230 422 -303 76 -47 212 -116 228 -116 10 0 22 -6 26 -13 8 -12 33 -25 133
-70 111 -49 131 -57 146 -57 9 0 28 -6 42 -14 28 -14 77 -32 127 -46 17 -5 55
-17 85 -26 101 -30 281 -72 368 -84 35 -5 68 -12 74 -16 6 -4 38 -10 72 -15
72 -9 196 -26 286 -40 88 -13 253 -28 445 -39 88 -5 187 -14 220 -20 33 -5
105 -10 160 -10 55 0 127 -5 160 -10 33 -6 123 -15 200 -20 77 -5 156 -14 175
-20 19 -5 64 -10 100 -10 36 0 83 -5 105 -10 22 -5 76 -14 120 -20 44 -6 116
-17 160 -25 44 -8 109 -19 145 -24 36 -5 78 -14 93 -20 16 -6 43 -11 60 -11
18 0 45 -7 61 -15 15 -8 41 -15 56 -15 15 0 44 -7 63 -15 20 -8 49 -15 64 -15
15 0 37 -7 47 -15 11 -8 29 -15 40 -15 24 0 250 -75 288 -96 14 -7 33 -14 42
-14 9 0 24 -4 34 -10 9 -5 35 -16 57 -25 69 -28 97 -41 196 -89 53 -25 101
-46 107 -46 7 0 12 -4 12 -10 0 -5 7 -10 15 -10 17 0 183 -85 206 -106 8 -8
22 -14 29 -14 7 0 21 -6 29 -14 9 -7 41 -26 71 -42 30 -15 68 -37 83 -47 15
-10 53 -33 85 -49 31 -17 95 -56 142 -87 47 -31 90 -58 95 -61 6 -3 29 -17 52
-32 23 -15 53 -30 67 -34 15 -3 29 -10 32 -15 3 -5 48 -9 99 -9 92 0 96 1 182
45 49 25 144 86 213 135 145 104 315 210 335 210 8 0 16 4 19 9 7 11 252 131
268 131 8 0 119 50 170 76 14 8 33 14 41 14 8 0 28 7 43 15 16 8 36 15 45 15
9 0 19 3 22 6 10 11 110 43 133 44 11 0 25 5 31 11 6 6 29 15 50 20 53 12 317
77 378 94 59 15 159 35 230 45 28 4 77 12 110 18 108 20 199 33 285 42 47 4
92 11 100 14 15 6 121 17 354 36 61 5 130 13 155 19 25 5 100 12 165 16 66 3
127 10 137 16 10 5 59 9 109 9 50 0 100 5 110 10 11 6 68 14 127 20 59 5 149
16 198 23 50 8 128 20 174 26 47 7 89 15 95 19 6 3 34 9 61 13 52 6 125 23
185 42 19 6 55 14 80 18 65 11 147 33 156 42 4 4 20 7 35 7 16 0 43 6 61 14
42 17 94 35 133 46 46 13 97 31 127 46 14 8 35 14 46 14 12 0 23 4 26 9 4 5
32 17 64 27 31 10 73 25 92 35 19 10 67 32 105 49 80 36 140 66 240 119 107
56 136 73 190 112 28 20 60 39 73 43 12 4 22 12 22 17 0 5 5 9 11 9 9 0 73 46
107 77 7 7 16 13 20 13 4 0 23 15 42 33 19 18 43 36 53 40 9 3 17 10 17 15 0
5 18 21 40 36 50 33 276 256 359 354 118 140 341 458 341 487 0 5 6 16 14 24
22 26 96 173 96 192 0 10 6 22 13 26 14 10 47 69 47 87 0 7 11 34 25 60 14 26
25 52 25 58 0 5 6 24 14 41 7 18 21 52 31 77 9 25 23 60 31 78 8 18 14 41 14
50 0 10 4 22 8 27 12 13 52 137 52 158 0 10 4 25 9 35 14 29 41 119 41 138 0
10 6 36 14 59 21 60 46 178 46 217 0 19 4 38 10 44 10 10 24 101 41 269 5 55
14 104 19 109 13 13 13 799 0 812 -5 5 -14 52 -19 104 -13 118 -29 207 -41
231 -6 10 -10 30 -10 46 0 15 -7 51 -16 78 -39 123 -44 141 -44 161 0 11 -7
29 -15 40 -8 10 -15 29 -15 40 0 12 -7 35 -15 50 -8 16 -15 37 -15 47 0 9 -4
25 -9 35 -5 9 -16 35 -24 57 -35 96 -50 132 -63 157 -8 14 -14 33 -14 42 0 9
-4 24 -10 34 -5 9 -19 40 -31 67 -11 28 -29 68 -40 91 -10 22 -19 43 -19 47 0
3 -16 41 -36 84 -95 203 -116 249 -124 268 -5 11 -36 79 -70 150 -67 141 -124
264 -158 336 -12 25 -22 49 -22 52 0 7 -75 174 -90 199 -6 10 -10 23 -10 29 0
7 -10 33 -21 58 -12 25 -26 57 -31 71 -6 14 -16 39 -23 55 -7 17 -20 50 -30
75 -9 25 -23 60 -31 78 -8 18 -14 41 -14 50 0 10 -4 22 -8 28 -5 5 -18 43 -31
84 -13 41 -26 84 -31 95 -5 11 -13 38 -18 60 -6 22 -17 65 -26 95 -9 30 -20
78 -25 105 -5 28 -14 63 -20 78 -6 16 -11 42 -11 58 0 17 -5 39 -10 50 -15 27
-32 227 -37 429 -4 175 -2 192 47 517 5 35 14 72 20 82 5 11 10 29 10 41 0 20
19 92 41 155 6 17 15 46 19 65 23 95 32 125 39 135 5 5 11 21 14 35 5 27 23
77 43 125 7 17 20 50 30 75 9 25 27 68 39 95 12 28 25 62 29 78 3 15 11 27 16
27 6 0 10 7 10 16 0 9 18 52 39 94 22 43 42 92 46 108 3 17 13 33 21 36 8 3
14 16 14 30 0 13 3 26 8 28 4 2 26 39 48 83 50 97 109 207 135 249 10 17 29
51 42 76 12 25 39 71 60 102 20 31 37 60 37 64 0 3 20 36 43 73 50 76 137 213
152 240 12 21 89 126 151 204 22 29 50 71 62 95 26 51 30 133 7 156 -8 8 -15
21 -15 29 0 8 -66 82 -147 164 -82 82 -202 207 -268 278 -66 70 -172 182 -235
248 -63 65 -118 127 -122 138 -4 10 -13 19 -20 19 -7 0 -36 26 -63 57 -28 32
-68 76 -90 98 -79 81 -252 263 -375 395 -69 73 -136 146 -150 160 -230 242
-379 399 -440 463 -41 43 -100 104 -130 136 -30 31 -117 123 -193 204 -88 93
-148 149 -165 153 -15 4 -33 11 -39 16 -13 11 -47 7 -123 -11 -52 -13 -64 -18
-146 -60 -34 -17 -67 -31 -73 -31 -6 0 -29 -11 -51 -25 -22 -14 -50 -25 -64
-25 -13 0 -29 -7 -36 -15 -7 -8 -22 -15 -34 -15 -12 0 -31 -7 -42 -15 -10 -8
-27 -15 -37 -15 -10 0 -25 -7 -33 -15 -9 -8 -25 -15 -38 -15 -12 0 -26 -4 -31
-9 -6 -5 -37 -16 -70 -26 -33 -10 -71 -24 -85 -31 -14 -6 -52 -20 -85 -29 -33
-10 -75 -24 -93 -31 -18 -8 -40 -14 -49 -14 -9 0 -41 -7 -72 -16 -31 -9 -85
-24 -121 -35 -83 -24 -190 -48 -260 -58 -30 -5 -68 -14 -83 -20 -16 -6 -50
-11 -76 -11 -26 0 -51 -4 -56 -9 -6 -6 -59 -15 -120 -21 -60 -6 -146 -15 -190
-19 -106 -12 -538 -12 -645 0 -47 5 -134 13 -195 18 -60 5 -123 14 -138 20
-16 6 -48 11 -71 11 -24 0 -65 7 -92 15 -27 8 -65 15 -84 15 -19 0 -53 7 -75
15 -22 8 -57 14 -77 15 -20 0 -39 4 -43 9 -3 5 -30 13 -60 16 -31 4 -58 11
-61 16 -3 5 -19 9 -35 9 -16 0 -46 7 -66 15 -19 8 -46 15 -59 15 -12 0 -25 4
-28 9 -3 4 -20 11 -38 15 -50 10 -379 115 -411 132 -16 7 -35 14 -42 14 -8 0
-29 6 -47 14 -18 8 -49 21 -70 30 -20 9 -43 16 -52 16 -9 0 -16 5 -16 10 0 6
-5 10 -11 10 -12 0 -47 15 -146 61 -35 16 -66 29 -70 29 -5 0 -44 17 -88 39
-44 21 -92 41 -107 45 -16 3 -28 11 -28 16 0 6 -45 10 -110 10 -61 0 -110 -4
-110 -9z"/>
</g>
</svg>
