<?xml version="1.0" encoding="iso-8859-1"?>
<!-- Generator: Adobe Illustrator 19.0.0, SVG Export Plug-In . SVG Version: 6.00 Build 0)  -->
<svg version="1.1" id="Layer_1" xmlns="http://www.w3.org/2000/svg" xmlns:xlink="http://www.w3.org/1999/xlink" x="0px" y="0px"
	 viewBox="0 0 512.006 512.006" style="enable-background:new 0 0 512.006 512.006;" xml:space="preserve">
<g>
	<g>
		<g>
			<path d="M256,448.003c11.776,0,21.333-9.557,21.333-21.333s-9.557-21.333-21.333-21.333s-21.333,9.557-21.333,21.333
				S244.224,448.003,256,448.003z"/>
			<path d="M469.333,85.467V42.67h21.333c11.782,0,21.333-9.551,21.333-21.333c0-11.782-9.551-21.333-21.333-21.333h-85.333
				C393.551,0.003,384,9.554,384,21.337c0,11.782,9.551,21.333,21.333,21.333h21.333v42.797c-23.84,1.691-42.66,21.565-42.66,45.843
				v27.982l-20.934,14.045v-24c0-11.782-9.551-21.333-21.333-21.333H171.072c-11.782,0-21.333,9.551-21.333,21.333v24.275
				l-21.732-14.397V131.31c0-24.282-18.823-44.149-42.673-45.843V42.67h21.333c11.782,0,21.333-9.551,21.333-21.333
				c0-11.782-9.551-21.333-21.333-21.333H21.333C9.551,0.003,0,9.554,0,21.337C0,33.119,9.551,42.67,21.333,42.67h21.333v42.797
				c-23.84,1.691-42.66,21.565-42.66,45.843v142.72c0,25.387,20.574,45.973,45.952,45.973h36.075
				c25.393,0,45.973-20.581,45.973-45.973v-63.636l21.732,14.397v52.533c-16.655,13.822-28.374,33.769-35.405,58.089
				c-6.739,23.313-8.442,47.163-7.437,67.724c0.091,1.854,0.187,3.232,0.262,4.081c1.039,11.736,11.395,20.408,23.131,19.37
				c11.736-1.039,20.408-11.395,19.37-23.131c-0.027-0.304-0.084-1.124-0.147-2.403c-0.795-16.267,0.596-35.758,5.809-53.792
				c9.157-31.677,26.82-48.591,58.42-48.591h21.232l-0.203,42.667H192c-11.782,0-21.333,9.551-21.333,21.333v128
				c0,11.782,9.551,21.333,21.333,21.333h128c11.782,0,21.333-9.551,21.333-21.333v-128c0-11.782-9.551-21.333-21.333-21.333
				h-42.561l0.203-42.667h21.434c31.6,0,49.263,16.915,58.42,48.591c5.213,18.034,6.605,37.524,5.809,53.792
				c-0.063,1.279-0.12,2.099-0.147,2.403c-1.039,11.736,7.633,22.092,19.37,23.131c11.736,1.039,22.092-7.633,23.131-19.37
				c0.075-0.849,0.171-2.227,0.262-4.081c1.005-20.561-0.697-44.411-7.437-67.724c-7.031-24.323-18.753-44.273-35.413-58.095v-52.6
				l20.934-14.045v63.359c0,25.387,20.574,45.973,45.952,45.973h36.075c25.393,0,45.973-20.581,45.973-45.973V131.31
				C512.006,107.028,493.184,87.161,469.333,85.467z M82.033,277.337H45.958c-1.808,0-3.285-1.479-3.285-3.307V131.31
				c0-1.828,1.478-3.307,3.285-3.307h36.075c1.829,0,3.307,1.478,3.307,3.307v39.444c0,0.051-0.001,0.102,0,0.152V274.03
				C85.34,275.858,83.862,277.337,82.033,277.337z M298.667,469.337h-85.333v-85.333h85.333V469.337z M192.405,256.003v-42.696
				c0-0.082,0.001-0.163,0-0.244V170.67h128v85.333H192.405z M469.34,274.03c0,1.829-1.478,3.307-3.307,3.307h-36.075
				c-1.808,0-3.285-1.479-3.285-3.307V131.31c0-1.828,1.478-3.307,3.285-3.307h36.075c1.829,0,3.307,1.478,3.307,3.307V274.03z"/>
		</g>
	</g>
</g>
<g>
</g>
<g>
</g>
<g>
</g>
<g>
</g>
<g>
</g>
<g>
</g>
<g>
</g>
<g>
</g>
<g>
</g>
<g>
</g>
<g>
</g>
<g>
</g>
<g>
</g>
<g>
</g>
<g>
</g>
</svg>
