<?xml version="1.0" encoding="iso-8859-1"?>
<!-- Generator: Adobe Illustrator 19.0.0, SVG Export Plug-In . SVG Version: 6.00 Build 0)  -->
<svg version="1.1" id="Layer_1" xmlns="http://www.w3.org/2000/svg" xmlns:xlink="http://www.w3.org/1999/xlink" x="0px" y="0px"
	 viewBox="0 0 496 496" style="enable-background:new 0 0 496 496;" xml:space="preserve">
<g>
	<g>
		<g>
			<path d="M496,232v-20.088L258.592,40h-21.184L184,78.672V48h16V0H40v48h16v123.36L0,211.912V232h40v120H0v112h40v32h416V328
				c22.056,0,40-17.944,40-40c0-22.056-17.944-40-40-40v-16H496z M56,16h128v16H56V16z M168,48v42.256l-96,69.52V48H168z M32,416v32
				H16v-80h368v80h-16v-32h-16v32h-16v-32h-16v32h-16v-32h-16v32h-16v-32h-16v32h-16v-32h-16v32h-16v-32h-16v32h-16v-32h-16v32h-16
				v-32h-16v32h-16v-32H96v32H80v-32H64v32H48v-32H32z M440,480H56v-16h344V352H56V232h384v16H149.576l-60,40l60,40H440V480z
				 M424,264v48h-16v-48H424z M168,280v-16h224v16H168z M392,296v16H168v-16H392z M152,265.616v44.768L118.424,288L152,265.616z
				 M480,288c0,13.232-10.768,24-24,24h-16v-48h16C469.232,264,480,274.768,480,288z M448,216h-8H56h-8H21.64L242.592,56h10.816
				L474.36,216H448z"/>
			<path d="M248,80c-35.288,0-64,28.712-64,64c0,35.288,28.712,64,64,64c35.288,0,64-28.712,64-64C312,108.712,283.288,80,248,80z
				 M248,192c-26.472,0-48-21.528-48-48s21.528-48,48-48s48,21.528,48,48S274.472,192,248,192z"/>
		</g>
	</g>
</g>
<g>
</g>
<g>
</g>
<g>
</g>
<g>
</g>
<g>
</g>
<g>
</g>
<g>
</g>
<g>
</g>
<g>
</g>
<g>
</g>
<g>
</g>
<g>
</g>
<g>
</g>
<g>
</g>
<g>
</g>
</svg>
