<?xml version="1.0"?>
<svg xmlns="http://www.w3.org/2000/svg" viewBox="0 0 50 50">
    <path style="line-height:normal;text-indent:0;text-align:start;text-decoration-line:none;text-decoration-style:solid;text-decoration-color:#000;text-transform:none;block-progression:tb;isolation:auto;mix-blend-mode:normal" d="M 26.5 2 C 24.026563 2 22 4.0265633 22 6.5 C 22 8.9734367 24.026563 11 26.5 11 C 28.973437 11 31 8.9734367 31 6.5 C 31 4.0265633 28.973437 2 26.5 2 z M 26.5 4 C 27.892557 4 29 5.1074435 29 6.5 C 29 7.8925565 27.892557 9 26.5 9 C 25.107443 9 24 7.8925565 24 6.5 C 24 5.1074435 25.107443 4 26.5 4 z M 18.5 9 C 16.026563 9 14 11.026563 14 13.5 C 14 15.973437 16.026563 18 18.5 18 C 20.973437 18 23 15.973437 23 13.5 C 23 11.026563 20.973437 9 18.5 9 z M 18.5 11 C 19.892557 11 21 12.107443 21 13.5 C 21 14.892557 19.892557 16 18.5 16 C 17.107443 16 16 14.892557 16 13.5 C 16 12.107443 17.107443 11 18.5 11 z M 33.923828 11.052734 C 33.702609 11.053094 33.485714 11.083199 33.255859 11.142578 L 25.685547 12.646484 A 1.0001 1.0001 0 0 0 25.552734 12.681641 C 24.65175 12.994961 23.952282 13.721491 23.669922 14.632812 A 1.0001 1.0001 0 0 0 23.644531 14.730469 L 23.060547 17.611328 L 19.070312 19.515625 A 1.0001 1.0001 0 0 0 19.003906 19.548828 C 18.557066 19.803737 18.184228 20.170358 17.919922 20.609375 A 1.0001 1.0001 0 0 0 17.917969 20.613281 L 14.917969 25.636719 L 11.794922 27.255859 L 11.884766 27.214844 C 10.357962 27.826458 9.6031239 29.587844 10.212891 31.115234 C 10.679062 32.278429 11.804038 33.001953 12.998047 33.001953 C 13.372391 33.001953 13.75142 32.930773 14.111328 32.787109 A 1.0001 1.0001 0 0 0 14.1875 32.751953 L 18.1875 30.751953 C 18.763589 30.516407 19.271705 30.250498 19.521484 29.453125 L 19.425781 29.667969 L 21.732422 25.796875 L 22.833984 27.277344 C 22.824584 27.344444 22.839888 27.309974 22.798828 27.478516 C 22.707578 27.852951 22.50779 28.445416 22.066406 29.228516 C 21.183639 30.794716 19.324775 33.128079 15.416016 35.9375 C 10.418711 39.529523 5.8945313 40.005859 5.8945312 40.005859 A 1.0001 1.0001 0 0 0 5 40.998047 C 5 40.998047 4.99598 42.282511 5.7128906 43.640625 C 6.4297978 44.998739 7.9597987 46.482831 10.638672 46.910156 C 12.805418 47.255923 14.190068 46.57836 14.908203 46.158203 C 15.589984 46.740476 17.233546 48 20 48 C 22.574142 48 24.115034 46.934239 24.917969 46.287109 C 25.129949 46.520795 25.082983 46.590478 25.445312 46.832031 C 26.36599 47.445816 27.833333 48 30 48 C 32.166667 48 33.634011 47.445816 34.554688 46.832031 C 34.969152 46.555721 34.939521 46.464346 35.158203 46.208984 C 35.336865 46.308444 35.309668 46.335205 35.556641 46.431641 C 36.315115 46.727804 37.445179 47 39 47 C 41.195565 47 42.736104 46.112385 43.652344 45.214844 C 44.568584 44.317302 44.935547 43.351563 44.935547 43.351562 A 1.0001 1.0001 0 0 0 44.664062 42.251953 C 42.598533 40.415927 40.703414 38.470828 39 36.566406 L 39 33.724609 C 39 33.125916 38.891678 32.532054 38.681641 31.970703 A 1.0001 1.0001 0 0 0 38.671875 31.943359 L 36.191406 25.847656 C 36.190939 25.846456 36.191872 25.84495 36.191406 25.84375 C 36.002259 25.337305 35.961514 24.791345 36.056641 24.261719 C 36.582888 24.715316 37.258051 25 38 25 L 38.375 25 C 39.133333 25 39.795725 24.830206 40.296875 24.460938 C 40.798025 24.091669 41.062155 23.612018 41.269531 23.197266 C 41.616167 22.503377 42.003275 21.399712 42.34375 20.402344 C 42.563506 19.758604 42.629265 19.540299 42.736328 19.207031 C 42.824574 19.009569 42.897613 18.804434 42.941406 18.587891 C 42.941619 18.587215 42.953125 18.550781 42.953125 18.550781 L 42.945312 18.548828 C 42.978972 18.37037 43 18.187577 43 18 C 43 16.35503 41.64497 15 40 15 A 1.0001 1.0001 0 0 0 39.847656 15.011719 L 38.773438 15.177734 C 38.645174 14.996671 38.311774 14.526341 37.828125 13.847656 C 37.543736 13.448585 37.253435 13.042053 37.019531 12.716797 C 36.785628 12.39154 36.64872 12.198251 36.529297 12.048828 C 36.005148 11.392531 35.312573 11.225425 34.724609 11.130859 C 34.430421 11.083544 34.17307 11.052329 33.923828 11.052734 z M 33.730469 13.082031 C 33.614403 13.115921 34.07483 13.051849 34.408203 13.105469 C 34.741576 13.159089 34.991077 13.327323 34.966797 13.296875 A 1.0001 1.0001 0 0 0 34.96875 13.296875 C 34.95283 13.276955 35.165669 13.563803 35.396484 13.884766 C 35.6273 14.205728 35.915733 14.611962 36.199219 15.009766 C 36.383925 15.268957 36.398959 15.290564 36.560547 15.517578 L 33.423828 16 L 27.5 16 A 1.0001 1.0001 0 0 0 27.427734 16.001953 C 26.71576 16.052938 26.008874 16.201388 25.324219 16.517578 L 25.587891 15.216797 C 25.683991 14.918699 25.909176 14.690027 26.199219 14.583984 L 33.644531 13.103516 A 1.0001 1.0001 0 0 0 33.730469 13.082031 z M 40.021484 17.007812 C 40.574229 17.020501 41 17.443379 41 18 C 41 18.079044 40.973221 18.147584 40.957031 18.220703 C 40.946985 18.252242 40.894957 18.406787 40.876953 18.462891 C 40.71242 18.781245 40.393072 19 40 19 A 1.0001 1.0001 0 0 0 39.847656 19.011719 L 33.423828 20 L 28.375 20 A 1.0001 1.0001 0 0 0 27.388672 21.160156 L 27.933594 24.541016 C 27.362898 25.094502 26.472388 25.500851 25.625 25.71875 C 25.115652 25.849725 24.669745 25.917294 24.34375 25.955078 L 22.441406 23.402344 A 1.0001 1.0001 0 0 0 20.78125 23.488281 L 17.708984 28.642578 A 1.0001 1.0001 0 0 0 17.613281 28.855469 C 17.718103 28.520845 17.573451 28.847668 17.369141 28.929688 A 1.0001 1.0001 0 0 0 17.292969 28.962891 L 13.351562 30.933594 C 13.232333 30.978534 13.113326 31.001953 12.998047 31.001953 C 12.606056 31.001953 12.230142 30.769899 12.070312 30.371094 C 11.861493 29.845056 12.102422 29.282384 12.626953 29.072266 A 1.0001 1.0001 0 0 0 12.716797 29.03125 L 16.091797 27.28125 A 1.0001 1.0001 0 0 0 16.490234 26.90625 L 19.632812 21.640625 C 19.721532 21.493265 19.845219 21.375933 19.992188 21.291016 L 25.769531 18.535156 A 1.0001 1.0001 0 0 0 25.859375 18.486328 C 26.38145 18.168182 26.865877 18.05078 27.564453 18 L 33.5 18 A 1.0001 1.0001 0 0 0 33.652344 17.988281 L 40.021484 17.007812 z M 40.001953 21.011719 C 39.797364 21.562886 39.603694 22.056065 39.480469 22.302734 C 39.312845 22.637982 39.201975 22.783331 39.109375 22.851562 C 39.016775 22.919794 38.866667 23 38.375 23 L 38 23 C 37.43497 23 37 22.56503 37 22 L 37 21.472656 L 40.001953 21.011719 z M 34.720703 21.824219 L 34.189453 23.4375 A 1.0001 1.0001 0 0 0 34.173828 23.490234 C 33.901546 24.499428 33.950804 25.56868 34.318359 26.548828 A 1.0001 1.0001 0 0 0 34.328125 26.574219 L 36.820312 32.697266 L 36.808594 32.671875 C 36.934529 33.008528 37 33.365303 37 33.724609 L 37 34.224609 C 32.686802 29.028885 30.038952 24.64717 29.951172 24.5 L 29.548828 22 L 33.5 22 A 1.0001 1.0001 0 0 0 33.652344 21.988281 L 34.720703 21.824219 z M 28.814453 26.445312 C 30.323535 28.825047 35.364103 36.397499 42.722656 43.128906 C 42.604234 43.341583 42.60917 43.437143 42.253906 43.785156 C 41.638896 44.387615 40.679435 45 39 45 C 37.676821 45 36.807182 44.772196 36.285156 44.568359 C 35.763131 44.364523 35.666016 44.253906 35.666016 44.253906 A 1.0001 1.0001 0 0 0 34.105469 44.552734 C 34.105469 44.552734 34.024639 44.781753 33.445312 45.167969 C 32.865989 45.554184 31.833333 46 30 46 C 28.166667 46 27.134011 45.554184 26.554688 45.167969 C 25.975364 44.781753 25.894531 44.552734 25.894531 44.552734 A 1.0001 1.0001 0 0 0 24.292969 44.292969 C 24.292969 44.292969 22.555556 46 20 46 C 17.444444 46 15.707031 44.292969 15.707031 44.292969 A 1.0001 1.0001 0 0 0 14.394531 44.203125 C 14.394531 44.203125 13.009942 45.261506 10.955078 44.933594 C 8.8319513 44.594915 7.9635147 43.618417 7.4824219 42.707031 C 7.2079697 42.187107 7.2579473 42.05237 7.2070312 41.734375 C 8.5328276 41.510481 12.108453 40.779476 16.583984 37.5625 C 20.675225 34.621921 22.753861 32.080284 23.808594 30.208984 C 24.33596 29.273334 24.604921 28.506424 24.740234 27.951172 C 24.743452 27.937969 24.743028 27.931022 24.746094 27.917969 C 25.129754 27.867739 25.599301 27.791429 26.125 27.65625 C 26.972956 27.438204 27.961599 27.084808 28.814453 26.445312 z" font-weight="400" font-family="sans-serif" white-space="normal" overflow="visible"/>
</svg>
