<?xml version="1.0" encoding="UTF-8" standalone="no"?>
<!--  Source: CBS (Centraal Bureau voor de Statistiek / Kadaster, Emmen, 2008). Integrated by Michiel1972. -->
<!--  Gemeentenaam: Delft -->
<!--  Wijknaam: Wijk 11 Binnenstad -->
<!--  Buurtnaam: Zuidpoort -->
<!--  Buurtcode: BU05031109 -->
<!--  Inwoneraantal 2008: 920 -->
<!--  Oppervlakte totaal (ha): 9-->
<!--  Oppervlakte land (ha): 9 -->
  <svg
   xmlns:svg="http://www.w3.org/2000/svg"
   xmlns="http://www.w3.org/2000/svg"
   xmlns:sodipodi="http://sodipodi.sourceforge.net/DTD/sodipodi-0.dtd"
   version="1.0"
   width="300pt"
   height="300pt"
   viewBox="40 15 430 430"
   id="svg2">
  <defs
     id="defs22" />
  <clipPath id="SVG_CP_1">
    <path d="M505,0L0,0L0,505L505,505L505,0z"/>
  </clipPath>
	<g transform="matrix(46.9010207202818,0,0,46.9010207202818,-9347.89891357297,-10327.2428770491)" id="cbs_gemeenten_2009">
		<path clip-path="url(#SVG_CP_1)" fill="#000000" stroke="#000000" stroke-width="0.11" fill-opacity="0.13" stroke-miterlimit="10" stroke-linejoin="round" d="
			M206.59387,223.92558L206.56687,223.99756L206.46787,224.2495L206.52187,224.32148L206.47687,224.35747L206.80087,225.44619L
			206.80987,225.47318L206.80987,225.48218L206.98087,226.13901L207.13387,226.70587L207.40387,227.7406L207.64687,227.85757L207.88086,228.57739
			L208.24086,229.2882L207.88086,229.53114L207.52087,228.81133L207.40387,228.46042L207.04387,227.98354L206.26987,228.19948L
			206.21587,228.21748L206.44987,228.69436L205.61288,228.93729L205.01888,229.05426L205.01888,228.69436L204.30788,228.93729L
			204.06488,227.98354L202.99389,228.21748L202.96689,228.22648L202.51689,228.33445L201.8779,227.12876L201.4459,226.30997L201.4459,226.30097
			L201.5629,225.95006L202.0939,225.52717L202.1569,225.47318L202.51689,225.12227L202.52589,225.09528L202.84089,224.58241L202.84089,224.57341
			L202.87689,224.51943L202.64289,224.28549L202.63389,224.28549L202.63389,224.2495L202.61589,224.15052L202.1569,223.92558L202.0399,223.92558
			L202.0219,223.93458L201.3199,224.28549L201.0859,223.80861L201.2029,223.69164L201.5629,223.4487L201.5629,223.25075L201.5629,223.21476
			L201.9229,222.97182L201.9499,222.95383L202.26489,222.73788L202.30089,222.71989L203.08389,222.19802L203.40789,221.98208L203.44389,221.95508
			L203.70489,221.78413L203.72289,221.77513L204.28988,221.43322L204.30788,221.42422L204.42488,221.42422L204.60488,221.24427
			L204.65888,221.18128L204.70388,221.16329L205.48688,220.7134L205.49588,220.7044L206.08087,221.40622L206.08987,221.42422L206.56687,221.9011
			L206.92687,222.73788L206.94487,222.77387L207.15187,223.41271L207.16987,223.4487L207.16987,223.56567L206.69287,223.69164L
			206.59387,223.92558"/>
		<path clip-path="url(#SVG_CP_1)" fill="none" stroke="#000000" stroke-width="0.013" stroke-miterlimit="10" stroke-linejoin="round" d="
			M206.59387,223.92558L206.56687,223.99756L206.46787,224.2495L206.52187,224.32148L206.47687,224.35747L206.80087,225.44619L
			206.80987,225.47318L206.80987,225.48218L206.98087,226.13901L207.13387,226.70587L207.15187,226.76885"/>
		<path clip-path="url(#SVG_CP_1)" fill="none" stroke="#000000" stroke-width="0.013" stroke-miterlimit="10" stroke-linejoin="round" d="
			M208.09686,229.38718L207.88086,229.53114L207.52087,228.81133L207.40387,228.46042L207.04387,227.98354L206.26987,228.19948
			L206.21587,228.21748L206.26087,228.30745"/>
		<path clip-path="url(#SVG_CP_1)" fill="none" stroke="#000000" stroke-width="0.013" stroke-miterlimit="10" stroke-linejoin="round" d="
			M204.32588,228.9283L204.30788,228.93729L204.06488,227.98354L202.99389,228.21748L202.96689,228.22648L202.51689,228.33445L
			202.32789,227.98354"/>
		<path clip-path="url(#SVG_CP_1)" fill="none" stroke="#000000" stroke-width="0.013" stroke-miterlimit="10" stroke-linejoin="round" d="
			M202.1299,225.50017L202.1569,225.47318L202.51689,225.12227L202.52589,225.09528L202.84089,224.58241L202.84089,224.57341L202.87689,224.51943
			L202.64289,224.28549L202.63389,224.28549L202.63389,224.2495L202.61589,224.15052L202.1569,223.92558L202.0399,223.92558L202.0219,223.93458
			L201.4459,224.2225"/>
		<path clip-path="url(#SVG_CP_1)" fill="none" stroke="#000000" stroke-width="0.013" stroke-miterlimit="10" stroke-linejoin="round" d="
			M202.80489,222.37798L203.08389,222.19802L203.40789,221.98208L203.44389,221.95508L203.70489,221.78413L203.72289,221.77513
			L204.28988,221.43322L204.30788,221.42422L204.42488,221.42422L204.60488,221.24427L204.65888,221.18128L204.70388,221.16329
			L205.32488,220.80338"/>
		<path clip-path="url(#SVG_CP_1)" fill="none" stroke="#000000" stroke-width="0.013" stroke-miterlimit="10" stroke-linejoin="round" d="
			M207.01687,223.00781L207.15187,223.41271L207.16987,223.4487L207.16987,223.56567L206.69287,223.69164L206.59387,223.92558"/>
       </g>
<g transform="matrix(46.9010207202818,0,0,46.9010207202818,-9347.89891357297,-10327.2428770491)" id="wijk_2008_gen">
		<path clip-path="url(#SVG_CP_1)" fill="none" fill-opacity="0.5" stroke="#000000" stroke-width="0.03" stroke-miterlimit="10" stroke-linecap="round" stroke-linejoin="round" d="
			M204.37988,224.29448L204.18188,224.45644L204.17288,224.42045L204.02889,223.73663L204.01089,223.71863L203.81289,223.35872
			L203.56089,222.93583L203.34489,222.57592L203.08389,222.19802L203.40789,221.98208L203.44389,221.95508L203.55189,222.297L203.80389,222.34198
			L204.14588,222.36898L204.35288,222.57592L204.81188,223.13378L204.96488,223.27774L205.09088,223.52068L205.15388,223.62865
			L205.07288,223.78162L204.86588,223.95257L204.69488,224.06954L204.42488,224.25849L204.37988,224.29448"/>
		<path clip-path="url(#SVG_CP_1)" fill="none" stroke="#000000" stroke-width="0.03" stroke-miterlimit="10" stroke-linecap="round" stroke-linejoin="round" d="
			M205.69388,223.18777L205.99987,223.62865L206.15287,223.8356L206.01787,223.89859L205.50488,223.63765L205.48688,223.53868L
			205.20788,223.54768L205.09088,223.52068L204.96488,223.27774L204.81188,223.13378L204.35288,222.57592L204.14588,222.36898L
			203.80389,222.34198L203.55189,222.297L203.44389,221.95508L203.70489,221.78413L203.72289,221.77513L204.28988,221.43322L204.30788,221.42422
			L204.42488,221.42422L204.60488,221.24427L204.62288,221.27126L204.44288,221.40622L204.97388,222.15303L205.20788,222.48595
			L205.50488,222.90884L205.61288,223.0708L205.69388,223.18777"/>
		<path clip-path="url(#SVG_CP_1)" fill="none" stroke="#000000" stroke-width="0.03" stroke-miterlimit="10" stroke-linecap="round" stroke-linejoin="round" d="
			M203.81289,224.64539L203.43489,224.80735L203.29089,224.2495L203.09289,223.96157L202.87689,223.70064L202.65189,223.16077L
			202.61589,223.08879L202.30089,222.71989L203.08389,222.19802L203.34489,222.57592L203.56089,222.93583L203.81289,223.35872L
			204.01089,223.71863L204.02889,223.73663L204.17288,224.42045L203.81289,224.64539"/>
		<path clip-path="url(#SVG_CP_1)" fill="none" stroke="#000000" stroke-width="0.03" stroke-miterlimit="10" stroke-linecap="round" stroke-linejoin="round" d="
			M202.87689,223.70064L203.09289,223.96157L203.29089,224.2495L203.43489,224.80735L203.03889,224.93332L203.05689,224.96931L
			202.52589,225.09528L202.84089,224.58241L202.84089,224.57341L202.87689,224.51943L202.64289,224.28549L202.63389,224.28549L
			202.63389,224.2495L202.61589,224.15052L202.1569,223.92558L202.0399,223.92558L202.0219,223.93458L201.3199,224.28549L201.0859,223.80861
			L201.2029,223.69164L201.5629,223.4487L201.5629,223.25075L201.5629,223.21476L201.9229,222.97182L201.9499,222.95383L202.26489,222.73788
			L202.30089,222.71989L202.61589,223.08879L202.65189,223.16077L202.87689,223.70064"/>
		<path clip-path="url(#SVG_CP_1)" fill="none" stroke="#000000" stroke-width="0.03" stroke-miterlimit="10" stroke-linecap="round" stroke-linejoin="round" d="
			M206.59387,223.92558L206.34187,224.07854L206.15287,223.8356L205.99987,223.62865L205.69388,223.18777L205.61288,223.0708L205.50488,222.90884
			L205.20788,222.48595L204.97388,222.15303L204.44288,221.40622L204.62288,221.27126L204.60488,221.24427L204.65888,221.18128
			L204.70388,221.16329L205.48688,220.7134L205.49588,220.7044L206.08087,221.40622L206.08987,221.42422L206.56687,221.9011L206.92687,222.73788
			L206.94487,222.77387L207.15187,223.41271L207.16987,223.4487L207.16987,223.56567L206.69287,223.69164L206.59387,223.92558"/>
		<path clip-path="url(#SVG_CP_1)" fill="none" stroke="#000000" stroke-width="0.03" stroke-miterlimit="10" stroke-linecap="round" stroke-linejoin="round" d="
			M202.51689,228.33445L201.8779,227.12876L202.2019,227.01179L203.29989,226.75985L203.73189,226.65188L203.76789,226.64288L203.80389,226.70587
			L203.86689,227.13775L203.96589,227.57864L203.99289,227.69561L202.88589,227.95654L202.96689,228.22648L202.51689,228.33445
			"/>
		<path clip-path="url(#SVG_CP_1)" fill="none" stroke="#000000" stroke-width="0.03" stroke-miterlimit="10" stroke-linecap="round" stroke-linejoin="round" d="
			M205.05488,227.44368L203.99289,227.69561L203.96589,227.57864L203.86689,227.13775L203.80389,226.70587L203.76789,226.64288
			L204.27188,226.40894L204.72188,226.23799L204.76688,226.21999L205.13588,227.41668L205.05488,227.44368"/>
		<path clip-path="url(#SVG_CP_1)" fill="none" stroke="#000000" stroke-width="0.03" stroke-miterlimit="10" stroke-linecap="round" stroke-linejoin="round" d="
			M203.76789,226.64288L203.73189,226.65188L203.69589,226.51691L203.68689,226.48092L203.60589,226.11202L203.54289,225.82409
			L203.47089,225.45519L203.46189,225.13127L203.43489,224.80735L203.81289,224.64539L204.17288,224.42045L204.18188,224.45644
			L204.27188,224.72637L204.31688,224.87034L204.44288,225.23924L204.76688,226.21999L204.72188,226.23799L204.27188,226.40894
			L203.76789,226.64288"/>
		<path clip-path="url(#SVG_CP_1)" fill="none" stroke="#000000" stroke-width="0.03" stroke-miterlimit="10" stroke-linecap="round" stroke-linejoin="round" d="
			M202.2019,227.01179L201.8779,227.12876L201.4459,226.30997L201.4459,226.30097L201.5629,225.95006L202.0939,225.52717L202.1569,225.47318
			L202.51689,225.12227L202.52589,225.09528L203.05689,224.96931L203.03889,224.93332L203.43489,224.80735L203.46189,225.13127
			L203.47089,225.45519L203.54289,225.82409L203.60589,226.11202L203.68689,226.48092L203.69589,226.51691L203.73189,226.65188
			L203.29989,226.75985L202.2019,227.01179"/>
		<path clip-path="url(#SVG_CP_1)" fill="none" stroke="#000000" stroke-width="0.03" stroke-miterlimit="10" stroke-linecap="round" stroke-linejoin="round" d="
			M205.18088,227.57864L205.61288,228.93729L205.01888,229.05426L205.01888,228.69436L204.30788,228.93729L204.06488,227.98354
			L202.99389,228.21748L202.96689,228.22648L202.88589,227.95654L203.99289,227.69561L205.05488,227.44368L205.13588,227.41668
			L205.18088,227.57864"/>
		<path clip-path="url(#SVG_CP_1)" fill="none" stroke="#000000" stroke-width="0.03" stroke-miterlimit="10" stroke-linecap="round" stroke-linejoin="round" d="
			M205.61288,228.93729L205.18088,227.57864L205.13588,227.41668L204.76688,226.21999L204.44288,225.23924L204.31688,224.87034
			L204.27188,224.72637L204.18188,224.45644L204.37988,224.29448L204.42488,224.25849L204.55988,224.46544L204.63188,224.65439
			L204.68588,224.77136L204.77588,224.94232L205.25288,226.04004L205.87388,227.39869L206.08087,227.81258L206.26987,228.19948
			L206.21587,228.21748L206.44987,228.69436L205.61288,228.93729"/>
		<path clip-path="url(#SVG_CP_1)" fill="none" stroke="#000000" stroke-width="0.03" stroke-miterlimit="10" stroke-linecap="round" stroke-linejoin="round" d="
			M205.09088,223.52068L205.20788,223.54768L205.48688,223.53868L205.50488,223.63765L206.01787,223.89859L206.15287,223.8356L
			206.34187,224.07854L206.59387,223.92558L206.56687,223.99756L206.46787,224.2495L206.52187,224.32148L206.47687,224.35747L206.80087,225.44619
			L206.17987,225.68913L205.41488,225.97705L205.25288,226.04004L204.77588,224.94232L204.68588,224.77136L204.63188,224.65439
			L204.55988,224.46544L204.42488,224.25849L204.69488,224.06954L204.86588,223.95257L205.07288,223.78162L205.15388,223.62865
			L205.09088,223.52068"/>
		<path clip-path="url(#SVG_CP_1)" fill="none" stroke="#000000" stroke-width="0.03" stroke-miterlimit="10" stroke-linecap="round" stroke-linejoin="round" d="
			M207.64687,227.85757L207.88086,228.57739L208.24086,229.2882L207.88086,229.53114L207.52087,228.81133L207.40387,228.46042L
			207.04387,227.98354L206.26987,228.19948L206.08087,227.81258L205.87388,227.39869L205.25288,226.04004L205.41488,225.97705L
			206.17987,225.68913L206.80087,225.44619L206.80987,225.47318L206.80987,225.48218L206.98087,226.13901L207.13387,226.70587L
			207.40387,227.7406L207.64687,227.85757"/>
       </g>
<g transform="matrix(46.9010207202818,0,0,46.9010207202818,-9347.89891357297,-10327.2428770491)" id="brt_2008_gen">
		<path clip-path="url(#SVG_CP_1)" fill="none" stroke="#000000" stroke-width="0.029" stroke-miterlimit="10" stroke-linecap="round" stroke-linejoin="round" d="
			M203.65989,222.76488L203.56089,222.93583L203.34489,222.57592L203.08389,222.19802L203.40789,221.98208L203.44389,221.95508
			L203.55189,222.297L203.65989,222.76488"/>
		<path clip-path="url(#SVG_CP_1)" fill="none" stroke="#000000" stroke-width="0.029" stroke-miterlimit="10" stroke-linecap="round" stroke-linejoin="round" d="
			M204.35288,222.57592L204.03789,222.80087L203.92989,222.87285L203.85789,222.70189L203.65989,222.76488L203.55189,222.297L203.80389,222.34198
			L204.14588,222.36898L204.35288,222.57592"/>
		<path clip-path="url(#SVG_CP_1)" fill="none" stroke="#000000" stroke-width="0.029" stroke-miterlimit="10" stroke-linecap="round" stroke-linejoin="round" d="
			M203.85789,222.70189L203.92989,222.87285L204.03789,222.80087L204.31688,223.17877L204.02889,223.34073L204.17288,223.61966
			L204.01089,223.71863L203.81289,223.35872L203.56089,222.93583L203.65989,222.76488L203.85789,222.70189"/>
		<path clip-path="url(#SVG_CP_1)" fill="none" stroke="#000000" stroke-width="0.029" stroke-miterlimit="10" stroke-linecap="round" stroke-linejoin="round" d="
			M204.81188,223.13378L204.59588,223.29574L204.31688,223.17877L204.03789,222.80087L204.35288,222.57592L204.81188,223.13378
			"/>
		<path clip-path="url(#SVG_CP_1)" fill="none" stroke="#000000" stroke-width="0.029" stroke-miterlimit="10" stroke-linecap="round" stroke-linejoin="round" d="
			M204.53288,223.8266L204.31688,223.95257L204.17288,223.61966L204.02889,223.34073L204.31688,223.17877L204.59588,223.29574L
			204.79388,223.39471L204.46088,223.63765L204.53288,223.8266"/>
		<path clip-path="url(#SVG_CP_1)" fill="none" stroke="#000000" stroke-width="0.029" stroke-miterlimit="10" stroke-linecap="round" stroke-linejoin="round" d="
			M204.37988,224.29448L204.18188,224.45644L204.17288,224.42045L204.02889,223.73663L204.37988,224.29448"/>
		<path clip-path="url(#SVG_CP_1)" fill="none" stroke="#000000" stroke-width="0.029" stroke-miterlimit="10" stroke-linecap="round" stroke-linejoin="round" d="
			M204.17288,223.61966L204.31688,223.95257L204.53288,223.8266L204.57788,223.8356L204.69488,224.06954L204.42488,224.25849L204.37988,224.29448
			L204.02889,223.73663L204.01089,223.71863L204.17288,223.61966"/>
		<path clip-path="url(#SVG_CP_1)" fill="none" stroke="#000000" stroke-width="0.029" stroke-miterlimit="10" stroke-linecap="round" stroke-linejoin="round" d="
			M205.09088,223.52068L204.57788,223.8356L204.53288,223.8266L204.46088,223.63765L204.79388,223.39471L205.09088,223.52068"/>
		<path clip-path="url(#SVG_CP_1)" fill="none" stroke="#000000" stroke-width="0.029" stroke-miterlimit="10" stroke-linecap="round" stroke-linejoin="round" d="
			M204.96488,223.27774L205.09088,223.52068L204.79388,223.39471L204.59588,223.29574L204.81188,223.13378L204.96488,223.27774
			"/>
		<path clip-path="url(#SVG_CP_1)" fill="none" fill-opacity="0.9" stroke="#000000" stroke-width="0.029" stroke-miterlimit="10" stroke-linecap="round" stroke-linejoin="round" d="
			M204.86588,223.95257L204.69488,224.06954L204.57788,223.8356L205.09088,223.52068L205.15388,223.62865L205.07288,223.78162L
			204.86588,223.95257"/>
		<path clip-path="url(#SVG_CP_1)" fill="none" stroke="#000000" stroke-width="0.029" stroke-miterlimit="10" stroke-linecap="round" stroke-linejoin="round" d="
			M203.76789,221.8831L203.80389,222.34198L203.55189,222.297L203.44389,221.95508L203.70489,221.78413L203.72289,221.77513L203.76789,221.8831
			"/>
		<path clip-path="url(#SVG_CP_1)" fill="none" stroke="#000000" stroke-width="0.029" stroke-miterlimit="10" stroke-linecap="round" stroke-linejoin="round" d="
			M204.18188,221.61317L203.76789,221.8831L203.72289,221.77513L204.28988,221.43322L204.30788,221.42422L204.42488,221.42422L
			204.60488,221.24427L204.62288,221.27126L204.44288,221.40622L204.18188,221.61317"/>
		<path clip-path="url(#SVG_CP_1)" fill="none" stroke="#000000" stroke-width="0.029" stroke-miterlimit="10" stroke-linecap="round" stroke-linejoin="round" d="
			M204.56888,222.43196L204.35288,222.57592L204.14588,222.36898L203.80389,222.34198L203.76789,221.8831L204.18188,221.61317L
			204.26288,222.06306L204.56888,222.43196"/>
		<path clip-path="url(#SVG_CP_1)" fill="none" stroke="#000000" stroke-width="0.029" stroke-miterlimit="10" stroke-linecap="round" stroke-linejoin="round" d="
			M204.97388,222.15303L204.56888,222.43196L204.26288,222.06306L204.18188,221.61317L204.44288,221.40622L204.97388,222.15303
			"/>
		<path clip-path="url(#SVG_CP_1)" fill="none" stroke="#000000" stroke-width="0.029" stroke-miterlimit="10" stroke-linecap="round" stroke-linejoin="round" d="
			M205.05488,223.21476L204.96488,223.27774L204.81188,223.13378L204.35288,222.57592L204.56888,222.43196L204.80288,222.76488
			L205.05488,223.21476"/>
		<path clip-path="url(#SVG_CP_1)" fill="none" stroke="#000000" stroke-width="0.029" stroke-miterlimit="10" stroke-linecap="round" stroke-linejoin="round" d="
			M205.20788,222.48595L204.80288,222.76488L204.56888,222.43196L204.97388,222.15303L205.20788,222.48595"/>
		<path clip-path="url(#SVG_CP_1)" fill="none" stroke="#000000" stroke-width="0.029" stroke-miterlimit="10" stroke-linecap="round" stroke-linejoin="round" d="
			M205.50488,222.90884L205.05488,223.21476L204.80288,222.76488L205.20788,222.48595L205.50488,222.90884"/>
		<path clip-path="url(#SVG_CP_1)" fill="none" stroke="#000000" stroke-width="0.029" stroke-miterlimit="10" stroke-linecap="round" stroke-linejoin="round" d="
			M205.48688,223.53868L205.20788,223.54768L205.09088,223.52068L204.96488,223.27774L205.05488,223.21476L205.50488,222.90884
			L205.61288,223.0708L205.69388,223.18777L205.51388,223.31374L205.56788,223.38572L205.48688,223.53868"/>
		<path clip-path="url(#SVG_CP_1)" fill="none" stroke="#000000" stroke-width="0.029" stroke-miterlimit="10" stroke-linecap="round" stroke-linejoin="round" d="
			M206.15287,223.8356L206.01787,223.89859L205.50488,223.63765L205.48688,223.53868L205.56788,223.38572L205.51388,223.31374L
			205.69388,223.18777L205.99987,223.62865L206.15287,223.8356"/>
		<path clip-path="url(#SVG_CP_1)" fill="none" stroke="#000000" stroke-width="0.029" stroke-miterlimit="10" stroke-linecap="round" stroke-linejoin="round" d="
			M203.34489,222.57592L202.61589,223.08879L202.30089,222.71989L203.08389,222.19802L203.34489,222.57592"/>
		<path clip-path="url(#SVG_CP_1)" fill="none" stroke="#000000" stroke-width="0.029" stroke-miterlimit="10" stroke-linecap="round" stroke-linejoin="round" d="
			M203.12889,223.16077L202.65189,223.16077L202.61589,223.08879L203.34489,222.57592L203.56089,222.93583L203.12889,223.16077
			"/>
		<path clip-path="url(#SVG_CP_1)" fill="none" stroke="#000000" stroke-width="0.029" stroke-miterlimit="10" stroke-linecap="round" stroke-linejoin="round" d="
			M203.25489,223.52068L202.87689,223.70064L202.65189,223.16077L203.12889,223.16077L203.25489,223.52068"/>
		<path clip-path="url(#SVG_CP_1)" fill="none" stroke="#000000" stroke-width="0.029" stroke-miterlimit="10" stroke-linecap="round" stroke-linejoin="round" d="
			M203.81289,223.35872L203.29089,223.71863L203.25489,223.52068L203.12889,223.16077L203.56089,222.93583L203.81289,223.35872
			"/>
		<path clip-path="url(#SVG_CP_1)" fill="none" stroke="#000000" stroke-width="0.029" stroke-miterlimit="10" stroke-linecap="round" stroke-linejoin="round" d="
			M203.46189,224.12353L203.29089,224.2495L203.09289,223.96157L202.87689,223.70064L203.25489,223.52068L203.29089,223.71863L
			203.46189,224.12353"/>
		<path clip-path="url(#SVG_CP_1)" fill="none" stroke="#000000" stroke-width="0.029" stroke-miterlimit="10" stroke-linecap="round" stroke-linejoin="round" d="
			M204.02889,223.73663L203.46189,224.12353L203.29089,223.71863L203.81289,223.35872L204.01089,223.71863L204.02889,223.73663
			"/>
		<path clip-path="url(#SVG_CP_1)" fill="none" stroke="#000000" stroke-width="0.029" stroke-miterlimit="10" stroke-linecap="round" stroke-linejoin="round" d="
			M203.81289,224.64539L203.43489,224.80735L203.29089,224.2495L203.46189,224.12353L203.81289,224.64539"/>
		<path clip-path="url(#SVG_CP_1)" fill="none" stroke="#000000" stroke-width="0.029" stroke-miterlimit="10" stroke-linecap="round" stroke-linejoin="round" d="
			M204.17288,224.42045L203.81289,224.64539L203.46189,224.12353L204.02889,223.73663L204.17288,224.42045"/>
		<path clip-path="url(#SVG_CP_1)" fill="none" stroke="#000000" stroke-width="0.029" stroke-miterlimit="10" stroke-linecap="round" stroke-linejoin="round" d="
			M202.65189,223.16077L202.1839,223.35872L201.9499,222.95383L202.26489,222.73788L202.30089,222.71989L202.61589,223.08879L202.65189,223.16077
			"/>
		<path clip-path="url(#SVG_CP_1)" fill="none" stroke="#000000" stroke-width="0.029" stroke-miterlimit="10" stroke-linecap="round" stroke-linejoin="round" d="
			M202.87689,223.70064L202.53489,223.81761L202.1839,223.35872L202.65189,223.16077L202.87689,223.70064"/>
		<path clip-path="url(#SVG_CP_1)" fill="none" stroke="#000000" stroke-width="0.029" stroke-miterlimit="10" stroke-linecap="round" stroke-linejoin="round" d="
			M203.09289,223.96157L202.64289,224.28549L202.63389,224.28549L202.63389,224.2495L202.61589,224.15052L202.53489,223.81761L
			202.87689,223.70064L203.09289,223.96157"/>
		<path clip-path="url(#SVG_CP_1)" fill="none" stroke="#000000" stroke-width="0.029" stroke-miterlimit="10" stroke-linecap="round" stroke-linejoin="round" d="
			M203.29089,224.2495L202.84089,224.57341L202.87689,224.51943L202.64289,224.28549L203.09289,223.96157L203.29089,224.2495"/>
		<path clip-path="url(#SVG_CP_1)" fill="none" stroke="#000000" stroke-width="0.029" stroke-miterlimit="10" stroke-linecap="round" stroke-linejoin="round" d="
			M203.43489,224.80735L203.03889,224.93332L202.84089,224.58241L202.84089,224.57341L203.29089,224.2495L203.43489,224.80735"/>
		<path clip-path="url(#SVG_CP_1)" fill="none" stroke="#000000" stroke-width="0.029" stroke-miterlimit="10" stroke-linecap="round" stroke-linejoin="round" d="
			M202.53489,223.81761L202.61589,224.15052L202.1569,223.92558L202.0399,223.92558L202.0219,223.93458L201.5629,223.25075L201.5629,223.21476
			L201.9229,222.97182L201.9499,222.95383L202.1839,223.35872L202.53489,223.81761"/>
		<path clip-path="url(#SVG_CP_1)" fill="none" stroke="#000000" stroke-width="0.029" stroke-miterlimit="10" stroke-linecap="round" stroke-linejoin="round" d="
			M202.0219,223.93458L201.3199,224.28549L201.0859,223.80861L201.2029,223.69164L201.5629,223.4487L201.5629,223.25075L202.0219,223.93458
			"/>
		<path clip-path="url(#SVG_CP_1)" fill="none" stroke="#000000" stroke-width="0.029" stroke-miterlimit="10" stroke-linecap="round" stroke-linejoin="round" d="
			M203.05689,224.96931L202.52589,225.09528L202.84089,224.58241L203.03889,224.93332L203.05689,224.96931"/>
		<path clip-path="url(#SVG_CP_1)" fill="none" stroke="#000000" stroke-width="0.029" stroke-miterlimit="10" stroke-linecap="round" stroke-linejoin="round" d="
			M206.08087,221.40622L205.19888,222.01807L204.71288,221.36124L204.70388,221.16329L205.48688,220.7134L205.49588,220.7044L206.08087,221.40622
			"/>
		<path clip-path="url(#SVG_CP_1)" fill="none" stroke="#000000" stroke-width="0.029" stroke-miterlimit="10" stroke-linecap="round" stroke-linejoin="round" d="
			M205.19888,222.01807L204.97388,222.15303L204.44288,221.40622L204.62288,221.27126L204.60488,221.24427L204.65888,221.18128
			L204.70388,221.16329L204.71288,221.36124L205.19888,222.01807"/>
		<path clip-path="url(#SVG_CP_1)" fill="none" stroke="#000000" stroke-width="0.029" stroke-miterlimit="10" stroke-linecap="round" stroke-linejoin="round" d="
			M206.94487,222.77387L206.26987,223.22376L206.16187,223.0798L205.89187,223.16977L205.75688,222.98082L205.61288,223.0708L205.50488,222.90884
			L205.20788,222.48595L204.97388,222.15303L205.19888,222.01807L206.08087,221.40622L206.08987,221.42422L206.56687,221.9011L
			206.92687,222.73788L206.94487,222.77387"/>
		<path clip-path="url(#SVG_CP_1)" fill="none" stroke="#000000" stroke-width="0.029" stroke-miterlimit="10" stroke-linecap="round" stroke-linejoin="round" d="
			M205.75688,222.98082L205.89187,223.16977L206.16187,223.0798L206.26987,223.22376L206.47687,223.38572L205.99987,223.62865L
			205.69388,223.18777L205.61288,223.0708L205.75688,222.98082"/>
		<path clip-path="url(#SVG_CP_1)" fill="none" stroke="#000000" stroke-width="0.029" stroke-miterlimit="10" stroke-linecap="round" stroke-linejoin="round" d="
			M206.59387,223.92558L206.34187,224.07854L206.15287,223.8356L205.99987,223.62865L206.47687,223.38572L206.26987,223.22376L
			206.94487,222.77387L207.15187,223.41271L207.16987,223.4487L207.16987,223.56567L206.69287,223.69164L206.59387,223.92558"/>
		<path clip-path="url(#SVG_CP_1)" fill="none" stroke="#000000" stroke-width="0.029" stroke-miterlimit="10" stroke-linecap="round" stroke-linejoin="round" d="
			M202.82289,227.02978L202.36389,227.23673L202.2019,227.01179L203.29989,226.75985L203.25489,227.02078L202.82289,227.02978"/>
		<path clip-path="url(#SVG_CP_1)" fill="none" stroke="#000000" stroke-width="0.029" stroke-miterlimit="10" stroke-linecap="round" stroke-linejoin="round" d="
			M202.88589,227.56964L202.46289,227.7316L202.37289,227.59664L202.36389,227.23673L202.82289,227.02978L202.88589,227.56964"/>
		<path clip-path="url(#SVG_CP_1)" fill="none" stroke="#000000" stroke-width="0.029" stroke-miterlimit="10" stroke-linecap="round" stroke-linejoin="round" d="
			M203.29989,227.41668L202.88589,227.56964L202.82289,227.02978L203.25489,227.02078L203.29989,227.41668"/>
		<path clip-path="url(#SVG_CP_1)" fill="none" stroke="#000000" stroke-width="0.029" stroke-miterlimit="10" stroke-linecap="round" stroke-linejoin="round" d="
			M203.86689,227.13775L203.29989,227.41668L203.25489,227.02078L203.29989,226.75985L203.73189,226.65188L203.76789,226.64288
			L203.80389,226.70587L203.86689,227.13775"/>
		<path clip-path="url(#SVG_CP_1)" fill="none" stroke="#000000" stroke-width="0.029" stroke-miterlimit="10" stroke-linecap="round" stroke-linejoin="round" d="
			M203.99289,227.69561L202.88589,227.95654L202.86789,227.85757L202.57089,227.92955L202.46289,227.7316L202.88589,227.56964L
			203.29989,227.41668L203.86689,227.13775L203.96589,227.57864L203.99289,227.69561"/>
		<path clip-path="url(#SVG_CP_1)" fill="none" stroke="#000000" stroke-width="0.029" stroke-miterlimit="10" stroke-linecap="round" stroke-linejoin="round" d="
			M202.46289,227.7316L202.57089,227.92955L202.86789,227.85757L202.88589,227.95654L202.96689,228.22648L202.51689,228.33445L
			201.8779,227.12876L202.2019,227.01179L202.36389,227.23673L202.37289,227.59664L202.46289,227.7316"/>
		<path clip-path="url(#SVG_CP_1)" fill="none" stroke="#000000" stroke-width="0.029" stroke-miterlimit="10" stroke-linecap="round" stroke-linejoin="round" d="
			M204.76688,226.21999L205.13588,227.41668L205.05488,227.44368L205.01888,227.31771L204.85688,226.86782L204.73988,226.52591
			L204.37088,226.60689L203.80389,226.70587L203.76789,226.64288L204.27188,226.40894L204.72188,226.23799L204.76688,226.21999
			"/>
		<path clip-path="url(#SVG_CP_1)" fill="none" stroke="#000000" stroke-width="0.029" stroke-miterlimit="10" stroke-linecap="round" stroke-linejoin="round" d="
			M204.51488,226.9668L203.86689,227.13775L203.80389,226.70587L204.37088,226.60689L204.51488,226.9668"/>
		<path clip-path="url(#SVG_CP_1)" fill="none" stroke="#000000" stroke-width="0.029" stroke-miterlimit="10" stroke-linecap="round" stroke-linejoin="round" d="
			M204.85688,226.86782L204.51488,226.9668L204.37088,226.60689L204.73988,226.52591L204.85688,226.86782"/>
		<path clip-path="url(#SVG_CP_1)" fill="none" stroke="#000000" stroke-width="0.029" stroke-miterlimit="10" stroke-linecap="round" stroke-linejoin="round" d="
			M204.56888,227.43468L203.96589,227.57864L203.86689,227.13775L204.51488,226.9668L204.56888,227.43468"/>
		<path clip-path="url(#SVG_CP_1)" fill="none" stroke="#000000" stroke-width="0.029" stroke-miterlimit="10" stroke-linecap="round" stroke-linejoin="round" d="
			M205.01888,227.31771L204.56888,227.43468L204.51488,226.9668L204.85688,226.86782L205.01888,227.31771"/>
		<path clip-path="url(#SVG_CP_1)" fill="none" stroke="#000000" stroke-width="0.029" stroke-miterlimit="10" stroke-linecap="round" stroke-linejoin="round" d="
			M205.05488,227.44368L203.99289,227.69561L203.96589,227.57864L204.56888,227.43468L205.01888,227.31771L205.05488,227.44368
			"/>
		<path clip-path="url(#SVG_CP_1)" fill="none" stroke="#000000" stroke-width="0.029" stroke-miterlimit="10" stroke-linecap="round" stroke-linejoin="round" d="
			M203.93889,225.0233L203.46189,225.13127L203.43489,224.80735L203.81289,224.64539L203.93889,225.0233"/>
		<path clip-path="url(#SVG_CP_1)" fill="none" stroke="#000000" stroke-width="0.029" stroke-miterlimit="10" stroke-linecap="round" stroke-linejoin="round" d="
			M203.57889,225.42819L203.47089,225.45519L203.46189,225.13127L203.93889,225.0233L203.95689,225.36521L203.57889,225.42819"/>
		<path clip-path="url(#SVG_CP_1)" fill="none" stroke="#000000" stroke-width="0.029" stroke-miterlimit="10" stroke-linecap="round" stroke-linejoin="round" d="
			M204.31688,224.87034L203.93889,225.0233L203.81289,224.64539L204.17288,224.42045L204.18188,224.45644L204.27188,224.72637L
			204.31688,224.87034"/>
		<path clip-path="url(#SVG_CP_1)" fill="none" stroke="#000000" stroke-width="0.029" stroke-miterlimit="10" stroke-linecap="round" stroke-linejoin="round" d="
			M204.35288,225.29323L204.10088,225.36521L203.95689,225.36521L203.93889,225.0233L204.31688,224.87034L204.44288,225.23924L
			204.35288,225.29323"/>
		<path clip-path="url(#SVG_CP_1)" fill="none" stroke="#000000" stroke-width="0.029" stroke-miterlimit="10" stroke-linecap="round" stroke-linejoin="round" d="
			M203.83989,226.30997L203.68689,226.48092L203.60589,226.11202L203.54289,225.82409L203.47089,225.45519L203.57889,225.42819
			L203.83989,226.30997"/>
		<path clip-path="url(#SVG_CP_1)" fill="none" stroke="#000000" stroke-width="0.029" stroke-miterlimit="10" stroke-linecap="round" stroke-linejoin="round" d="
			M203.76789,226.64288L203.73189,226.65188L203.69589,226.51691L203.68689,226.48092L203.83989,226.30997L203.57889,225.42819
			L203.95689,225.36521L204.22688,226.30997L204.27188,226.40894L203.76789,226.64288"/>
		<path clip-path="url(#SVG_CP_1)" fill="none" stroke="#000000" stroke-width="0.029" stroke-miterlimit="10" stroke-linecap="round" stroke-linejoin="round" d="
			M204.37988,226.20199L204.22688,226.30997L203.95689,225.36521L204.10088,225.36521L204.37988,226.20199"/>
		<path clip-path="url(#SVG_CP_1)" fill="none" stroke="#000000" stroke-width="0.029" stroke-miterlimit="10" stroke-linecap="round" stroke-linejoin="round" d="
			M204.72188,226.23799L204.27188,226.40894L204.22688,226.30997L204.37988,226.20199L204.10088,225.36521L204.35288,225.29323
			L204.72188,226.23799"/>
		<path clip-path="url(#SVG_CP_1)" fill="none" stroke="#000000" stroke-width="0.029" stroke-miterlimit="10" stroke-linecap="round" stroke-linejoin="round" d="
			M204.76688,226.21999L204.72188,226.23799L204.35288,225.29323L204.44288,225.23924L204.76688,226.21999"/>
		<path clip-path="url(#SVG_CP_1)" fill="none" stroke="#000000" stroke-width="0.029" stroke-miterlimit="10" stroke-linecap="round" stroke-linejoin="round" d="
			M202.1839,225.50917L202.0939,225.52717L202.1569,225.47318L202.51689,225.12227L202.52589,225.09528L203.05689,224.96931L203.12889,225.32022
			L202.1839,225.50917"/>
		<path clip-path="url(#SVG_CP_1)" fill="none" stroke="#000000" stroke-width="0.029" stroke-miterlimit="10" stroke-linecap="round" stroke-linejoin="round" d="
			M202.55289,226.05803L202.1479,226.10302L202.1839,225.50917L203.12889,225.32022L203.13789,225.50017L203.09289,225.66213L202.50789,225.82409
			L202.55289,226.05803"/>
		<path clip-path="url(#SVG_CP_1)" fill="none" stroke="#000000" stroke-width="0.029" stroke-miterlimit="10" stroke-linecap="round" stroke-linejoin="round" d="
			M203.47089,225.45519L203.13789,225.50017L203.12889,225.32022L203.05689,224.96931L203.03889,224.93332L203.43489,224.80735
			L203.46189,225.13127L203.47089,225.45519"/>
		<path clip-path="url(#SVG_CP_1)" fill="none" stroke="#000000" stroke-width="0.029" stroke-miterlimit="10" stroke-linecap="round" stroke-linejoin="round" d="
			M203.09289,225.98605L202.55289,226.05803L202.50789,225.82409L203.09289,225.66213L203.09289,225.93206L203.09289,225.98605
			"/>
		<path clip-path="url(#SVG_CP_1)" fill="none" stroke="#000000" stroke-width="0.029" stroke-miterlimit="10" stroke-linecap="round" stroke-linejoin="round" d="
			M203.09289,226.27398L202.70589,226.31896L202.1389,226.23799L202.1479,226.10302L202.55289,226.05803L203.09289,225.98605L203.09289,226.15701
			L203.09289,226.27398"/>
		<path clip-path="url(#SVG_CP_1)" fill="none" stroke="#000000" stroke-width="0.029" stroke-miterlimit="10" stroke-linecap="round" stroke-linejoin="round" d="
			M203.54289,225.82409L203.09289,225.93206L203.09289,225.66213L203.13789,225.50017L203.47089,225.45519L203.54289,225.82409
			"/>
		<path clip-path="url(#SVG_CP_1)" fill="none" stroke="#000000" stroke-width="0.029" stroke-miterlimit="10" stroke-linecap="round" stroke-linejoin="round" d="
			M203.60589,226.11202L203.09289,226.15701L203.09289,225.98605L203.09289,225.93206L203.54289,225.82409L203.60589,226.11202
			"/>
		<path clip-path="url(#SVG_CP_1)" fill="none" stroke="#000000" stroke-width="0.029" stroke-miterlimit="10" stroke-linecap="round" stroke-linejoin="round" d="
			M202.1389,226.23799L202.70589,226.31896L203.09289,226.27398L203.10189,226.66987L202.1029,226.87682L202.1389,226.23799"/>
		<path clip-path="url(#SVG_CP_1)" fill="none" stroke="#000000" stroke-width="0.029" stroke-miterlimit="10" stroke-linecap="round" stroke-linejoin="round" d="
			M203.69589,226.51691L203.10189,226.66987L203.09289,226.27398L203.09289,226.15701L203.60589,226.11202L203.68689,226.48092
			L203.69589,226.51691"/>
		<path clip-path="url(#SVG_CP_1)" fill="none" stroke="#000000" stroke-width="0.029" stroke-miterlimit="10" stroke-linecap="round" stroke-linejoin="round" d="
			M203.29989,226.75985L202.2019,227.01179L202.1029,226.87682L203.10189,226.66987L203.69589,226.51691L203.73189,226.65188L203.29989,226.75985
			"/>
		<path clip-path="url(#SVG_CP_1)" fill="none" stroke="#000000" stroke-width="0.029" stroke-miterlimit="10" stroke-linecap="round" stroke-linejoin="round" d="
			M202.2019,227.01179L201.8779,227.12876L201.4459,226.30997L201.4459,226.30097L201.5629,225.95006L202.0939,225.52717L202.1839,225.50917
			L202.1479,226.10302L202.1389,226.23799L202.1029,226.87682L202.2019,227.01179"/>
		<path clip-path="url(#SVG_CP_1)" fill="none" stroke="#000000" stroke-width="0.029" stroke-miterlimit="10" stroke-linecap="round" stroke-linejoin="round" d="
			M205.18088,227.57864L205.61288,228.93729L205.01888,229.05426L205.01888,228.69436L204.30788,228.93729L204.06488,227.98354
			L202.99389,228.21748L202.96689,228.22648L202.88589,227.95654L203.99289,227.69561L205.05488,227.44368L205.13588,227.41668
			L205.18088,227.57864"/>
		<path clip-path="url(#SVG_CP_1)" fill="none" stroke="#000000" stroke-width="0.029" stroke-miterlimit="10" stroke-linecap="round" stroke-linejoin="round" d="
			M204.63188,224.65439L204.27188,224.72637L204.18188,224.45644L204.37988,224.29448L204.42488,224.25849L204.55988,224.46544
			L204.63188,224.65439"/>
		<path clip-path="url(#SVG_CP_1)" fill="none" stroke="#000000" stroke-width="0.029" stroke-miterlimit="10" stroke-linecap="round" stroke-linejoin="round" d="
			M204.68588,224.77136L204.31688,224.87034L204.27188,224.72637L204.63188,224.65439L204.68588,224.77136"/>
		<path clip-path="url(#SVG_CP_1)" fill="none" stroke="#000000" stroke-width="0.029" stroke-miterlimit="10" stroke-linecap="round" stroke-linejoin="round" d="
			M205.25288,226.04004L204.76688,226.21999L204.44288,225.23924L204.31688,224.87034L204.68588,224.77136L204.77588,224.94232
			L205.25288,226.04004"/>
		<path clip-path="url(#SVG_CP_1)" fill="none" stroke="#000000" stroke-width="0.029" stroke-miterlimit="10" stroke-linecap="round" stroke-linejoin="round" d="
			M205.87388,227.39869L205.18088,227.57864L205.13588,227.41668L204.76688,226.21999L205.25288,226.04004L205.87388,227.39869
			"/>
		<path clip-path="url(#SVG_CP_1)" fill="none" stroke="#000000" stroke-width="0.029" stroke-miterlimit="10" stroke-linecap="round" stroke-linejoin="round" d="
			M205.61288,228.93729L205.18088,227.57864L205.87388,227.39869L206.08087,227.81258L206.26987,228.19948L206.21587,228.21748
			L206.44987,228.69436L205.61288,228.93729"/>
		<path clip-path="url(#SVG_CP_1)" fill="none" stroke="#000000" stroke-width="0.029" stroke-miterlimit="10" stroke-linecap="round" stroke-linejoin="round" d="
			M205.12688,224.26749L204.91988,224.65439L204.74888,224.37546L204.55988,224.46544L204.42488,224.25849L204.69488,224.06954
			L204.86588,223.95257L205.12688,224.26749"/>
		<path clip-path="url(#SVG_CP_1)" fill="none" stroke="#000000" stroke-width="0.029" stroke-miterlimit="10" stroke-linecap="round" stroke-linejoin="round" d="
			M205.65788,224.42045L205.70288,224.51043L205.39688,224.6364L205.31588,224.50143L204.92888,224.68138L204.91988,224.65439L
			205.12688,224.26749L204.86588,223.95257L205.07288,223.78162L205.15388,223.62865L205.09088,223.52068L205.20788,223.54768L
			205.34288,223.99756L205.65788,224.42045"/>
		<path clip-path="url(#SVG_CP_1)" fill="none" stroke="#000000" stroke-width="0.029" stroke-miterlimit="10" stroke-linecap="round" stroke-linejoin="round" d="
			M205.50488,223.63765L206.01787,223.89859L206.15287,223.8356L206.34187,224.07854L206.17987,224.15952L205.34288,223.99756L
			205.20788,223.54768L205.48688,223.53868L205.50488,223.63765"/>
		<path clip-path="url(#SVG_CP_1)" fill="none" stroke="#000000" stroke-width="0.029" stroke-miterlimit="10" stroke-linecap="round" stroke-linejoin="round" d="
			M206.17987,224.15952L205.65788,224.42045L205.34288,223.99756L206.17987,224.15952"/>
		<path clip-path="url(#SVG_CP_1)" fill="none" stroke="#000000" stroke-width="0.029" stroke-miterlimit="10" stroke-linecap="round" stroke-linejoin="round" d="
			M205.41488,225.97705L205.25288,226.04004L204.77588,224.94232L204.89288,224.90633L204.83888,224.76236L204.94688,224.69938
			L205.41488,225.97705"/>
		<path clip-path="url(#SVG_CP_1)" fill="none" stroke="#000000" stroke-width="0.029" stroke-miterlimit="10" stroke-linecap="round" stroke-linejoin="round" d="
			M205.31588,224.50143L205.39688,224.6364L205.70288,224.51043L205.81988,224.78036L206.17987,225.68913L205.41488,225.97705L
			204.94688,224.69938L204.92888,224.68138L205.31588,224.50143"/>
		<path clip-path="url(#SVG_CP_1)" fill="none" stroke="#000000" stroke-width="0.029" stroke-miterlimit="10" stroke-linecap="round" stroke-linejoin="round" d="
			M206.36887,224.57341L205.81988,224.78036L205.70288,224.51043L205.65788,224.42045L206.17987,224.15952L206.34187,224.07854
			L206.46787,224.2495L206.52187,224.32148L206.47687,224.35747L206.32387,224.47444L206.36887,224.57341"/>
		<path clip-path="url(#SVG_CP_1)" fill="none" stroke="#000000" stroke-width="0.029" stroke-miterlimit="10" stroke-linecap="round" stroke-linejoin="round" d="
			M206.80087,225.44619L206.17987,225.68913L205.81988,224.78036L206.36887,224.57341L206.32387,224.47444L206.47687,224.35747
			L206.80087,225.44619"/>
		<path clip-path="url(#SVG_CP_1)" fill="none" stroke="#000000" stroke-width="0.029" stroke-miterlimit="10" stroke-linecap="round" stroke-linejoin="round" d="
			M206.56687,223.99756L206.46787,224.2495L206.34187,224.07854L206.59387,223.92558L206.56687,223.99756"/>
		<path clip-path="url(#SVG_CP_1)" fill="none" stroke="#000000" stroke-width="0.029" stroke-miterlimit="10" stroke-linecap="round" stroke-linejoin="round" d="
			M204.89288,224.90633L204.77588,224.94232L204.68588,224.77136L204.63188,224.65439L204.55988,224.46544L204.74888,224.37546
			L204.91988,224.65439L204.92888,224.68138L204.94688,224.69938L204.83888,224.76236L204.89288,224.90633"/>
		<path clip-path="url(#SVG_CP_1)" fill="none" stroke="#000000" stroke-width="0.029" stroke-miterlimit="10" stroke-linecap="round" stroke-linejoin="round" d="
			M205.89187,227.26372L206.08087,227.81258L205.87388,227.39869L205.25288,226.04004L205.41488,225.97705L205.89187,227.26372
			"/>
		<path clip-path="url(#SVG_CP_1)" fill="none" stroke="#000000" stroke-width="0.029" stroke-miterlimit="10" stroke-linecap="round" stroke-linejoin="round" d="
			M207.02587,226.9758L205.89187,227.26372L205.41488,225.97705L206.17987,225.68913L206.80087,225.44619L206.80987,225.47318L
			206.80987,225.48218L206.98087,226.13901L207.13387,226.70587L206.98987,226.72386L207.02587,226.9758"/>
		<path clip-path="url(#SVG_CP_1)" fill="none" stroke="#000000" stroke-width="0.029" stroke-miterlimit="10" stroke-linecap="round" stroke-linejoin="round" d="
			M207.64687,227.85757L207.88086,228.57739L208.24086,229.2882L207.88086,229.53114L207.52087,228.81133L207.40387,228.46042L
			207.04387,227.98354L206.26987,228.19948L206.08087,227.81258L205.89187,227.26372L207.02587,226.9758L206.98987,226.72386L207.13387,226.70587
			L207.40387,227.7406L207.64687,227.85757"/>
       </g>
</svg>
