<?xml version="1.0" encoding="iso-8859-1"?>
<!-- Generator: Adobe Illustrator 19.0.0, SVG Export Plug-In . SVG Version: 6.00 Build 0)  -->
<svg version="1.1" id="Layer_1" xmlns="http://www.w3.org/2000/svg" xmlns:xlink="http://www.w3.org/1999/xlink" x="0px" y="0px"
	 viewBox="0 0 484.507 484.507" style="enable-background:new 0 0 484.507 484.507;" xml:space="preserve">
<g>
	<g>
		<g>
			<path d="M432.503,237.194h-44.357V10c0-5.522-4.478-10-10-10H52.003c-5.523,0-10,4.478-10,10v464.507c0,5.522,4.477,10,10,10
				h375.559c8.937,0,14.941-7.99,14.941-19.884V247.194C442.503,241.672,438.026,237.194,432.503,237.194z M368.146,464.507H62.003
				V20h306.143V464.507z M422.503,464.507h-34.357V257.194h34.357V464.507z"/>
			<rect x="86.594" y="39.532" width="59.299" height="20"/>
			<rect x="86.594" y="79.064" width="118.598" height="20"/>
			<rect x="294.141" y="39.532" width="19.766" height="20"/>
			<rect x="323.791" y="39.532" width="19.766" height="20"/>
			<path d="M111.305,202.838c2.369,0,4.742-0.837,6.641-2.527l44.474-39.532l-13.287-14.947L111.706,179.1L98.607,166
				l-14.142,14.142l19.766,19.767C106.178,201.856,108.738,202.838,111.305,202.838z"/>
			<rect x="180.485" y="182.838" width="168.013" height="20"/>
			<rect x="180.485" y="153.188" width="24.708" height="20"/>
			<rect x="220.018" y="153.188" width="24.708" height="20"/>
			<path d="M111.305,301.669c2.369,0,4.742-0.837,6.642-2.528l44.474-39.532l-13.287-14.947l-37.426,33.268l-13.099-13.1
				l-14.143,14.143l19.766,19.767C106.178,300.687,108.738,301.669,111.305,301.669z"/>
			<rect x="180.485" y="281.669" width="168.013" height="20"/>
			<rect x="180.485" y="252.02" width="24.708" height="20"/>
			<rect x="220.018" y="252.02" width="24.708" height="20"/>
			<path d="M111.305,400.5c2.369,0,4.742-0.837,6.642-2.528l44.474-39.532l-13.287-14.947l-37.426,33.268l-13.099-13.1
				l-14.143,14.143l19.766,19.767C106.178,399.518,108.738,400.5,111.305,400.5z"/>
			<rect x="180.485" y="380.5" width="168.013" height="20"/>
			<rect x="180.485" y="350.851" width="24.708" height="20"/>
			<rect x="220.018" y="350.851" width="24.708" height="20"/>
		</g>
	</g>
</g>
<g>
</g>
<g>
</g>
<g>
</g>
<g>
</g>
<g>
</g>
<g>
</g>
<g>
</g>
<g>
</g>
<g>
</g>
<g>
</g>
<g>
</g>
<g>
</g>
<g>
</g>
<g>
</g>
<g>
</g>
</svg>
