<?xml version="1.0" encoding="iso-8859-1"?>
<!-- Generator: Adobe Illustrator 19.0.0, SVG Export Plug-In . SVG Version: 6.00 Build 0)  -->
<svg version="1.1" id="Layer_1" xmlns="http://www.w3.org/2000/svg" xmlns:xlink="http://www.w3.org/1999/xlink" x="0px" y="0px"
	 viewBox="0 0 511.999 511.999" style="enable-background:new 0 0 511.999 511.999;" xml:space="preserve">
<g>
	<g>
		<g>
			<path d="M288.563,91.425c0-26.242-21.35-47.591-47.591-47.591c-26.242,0-47.591,21.35-47.591,47.591
				c0,26.242,21.35,47.591,47.591,47.591C267.213,139.017,288.563,117.667,288.563,91.425z M213.419,91.425
				c0-15.193,12.36-27.553,27.553-27.553c15.193,0,27.553,12.36,27.553,27.553c0,15.193-12.36,27.553-27.553,27.553
				C225.779,118.978,213.419,106.618,213.419,91.425z"/>
			<path d="M506.684,106.695C474.742,79.722,440.755,66.61,402.786,66.61c-23.846,0-47.603,5.265-71.144,13.257
				C325.939,34.896,287.466,0,240.972,0c-50.412,0-91.425,41.014-91.425,91.425c0,15.334,7.988,36.385,19.04,58.175
				c-19.971,6.386-39.85,10.471-59.371,10.474c-0.008,0-0.011,0-0.02,0c-33.023,0-62.777-11.566-90.95-35.357
				c-2.979-2.516-7.148-3.075-10.684-1.433c-3.537,1.643-5.799,5.187-5.799,9.087V464.26c0,2.951,1.301,5.751,3.554,7.655
				c31.943,26.973,65.929,40.084,103.898,40.084c51.196,0,101.986-24.254,151.101-47.71c47.103-22.494,95.81-45.754,142.467-45.754
				c33.038,0,62.796,11.565,90.97,35.357c2.981,2.516,7.149,3.073,10.684,1.433c3.537-1.643,5.799-5.187,5.799-9.087V114.349
				C510.239,111.4,508.937,108.598,506.684,106.695z M240.972,20.038c39.363,0,71.387,32.024,71.387,71.387
				c0,30.531-45.922,100.562-71.387,135.893c-25.465-35.33-71.387-105.361-71.387-135.893
				C169.585,52.062,201.609,20.038,240.972,20.038z M251.734,315.309c-15.058,7.19-30.512,14.569-45.829,21.163v-40.103
				c0-3.32-1.647-6.422-4.392-8.29c-4.392-2.988-9.325-1.022-9.325-1.022c-14.126,5.609-26.953,9.873-38.883,12.917v-75.203
				c16.804-3.928,33.521-9.731,50.109-16.474c14.166,21.375,26.404,37.775,29.563,41.959c1.894,2.507,4.853,3.983,7.997,3.983
				c3.144,0,6.103-1.474,7.997-3.983c5.268-6.977,35.772-47.906,58.381-89.27v129.016
				C288.673,297.669,269.926,306.622,251.734,315.309z M307.349,311.743v59.048c-18.712,7.672-37.497,16.643-55.726,25.347
				c-15.023,7.174-30.438,14.534-45.719,21.114v-59.03C206.16,358.118,307.049,311.871,307.349,311.743z M69.39,320.767
				c12.825,3.484,26.166,5.25,39.829,5.25c11.455,0,23.559-1.236,35.975-3.67c0.075-0.014,0.149-0.03,0.223-0.046
				c12.565-2.471,25.898-6.237,40.45-11.438v40.61v73.923c-29.613,11.219-54.111,16.469-76.651,16.47
				c-13.973,0-27.067-1.995-39.823-6.085V320.774L69.39,320.767z M69.393,299.896v-74.93c12.822,3.483,26.165,5.243,39.828,5.244
				c0.003,0,0.005,0,0.008,0c8.024,0,16.038-0.596,24.036-1.692v75.568c-8.297,1.256-16.358,1.894-24.047,1.894
				C95.245,305.978,82.15,303.985,69.393,299.896z M490.2,426.02c-27.135-18.492-55.901-27.523-87.415-27.523
				c-51.196,0-101.986,24.254-151.101,47.71c-47.103,22.494-95.81,45.754-142.467,45.754c-31.653,0-60.292-10.614-87.415-32.426
				V152.59c27.132,18.492,55.892,27.523,87.394,27.523c0.006,0,0.015,0,0.023,0c23.133-0.003,46.182-4.963,69.032-12.559
				c4.549,8.03,9.328,15.973,14.098,23.588c-27.922,11.083-55.873,19.03-83.127,19.03c-16.349-0.001-31.492-2.732-46.294-8.347
				c-3.077-1.167-6.535-0.748-9.245,1.122s-4.328,4.953-4.328,8.246v95.809v135.886c0,4.162,2.574,7.89,6.465,9.367
				c16.879,6.405,34.844,9.652,53.397,9.652c26.741,0,55.456-6.465,90.37-20.342c20.329-8.08,40.838-17.873,60.671-27.344
				c19.978-9.54,40.635-19.404,60.782-27.336h0.001c0.001,0,0.001,0,0.003-0.001c31.923-12.583,57.9-18.443,81.753-18.443
				c16.341,0,31.479,2.73,46.278,8.345c3.078,1.169,6.536,0.749,9.245-1.121c2.71-1.871,4.328-4.953,4.328-8.246V135.724
				c0-4.162-2.574-7.891-6.465-9.367c-16.874-6.402-34.836-9.648-53.387-9.648c-24.588,0-50.795,5.457-81.947,17.098
				c5.155-11.768,8.985-22.927,10.64-32.621c23.973-8.673,47.893-14.535,71.297-14.535c31.653,0,60.292,10.614,87.415,32.426V426.02
				z M382.515,301.165c0.356,5.522,5.124,9.716,10.644,9.353c17.551-1.132,33.801,0.759,49.451,5.774v37.353
				c-12.818-3.482-26.156-5.241-39.814-5.241c-22.853,0-47.092,4.704-75.407,14.713v-66.347v-83.279
				c46.261-17.313,82.348-20.439,115.22-9.914v91.824c-16.162-4.424-32.883-6.033-50.741-4.879
				C386.346,290.878,382.158,295.642,382.515,301.165z M442.609,182.704c-41.862-11.381-82.13-2.343-115.221,9.432v-39.389
				c29.053-10.901,53.154-16.001,75.407-16.001c13.971,0,27.062,1.995,39.814,6.083V182.704z"/>
		</g>
	</g>
</g>
<g>
</g>
<g>
</g>
<g>
</g>
<g>
</g>
<g>
</g>
<g>
</g>
<g>
</g>
<g>
</g>
<g>
</g>
<g>
</g>
<g>
</g>
<g>
</g>
<g>
</g>
<g>
</g>
<g>
</g>
</svg>
