<?xml version="1.0" encoding="iso-8859-1"?>
<!-- Generator: Adobe Illustrator 19.0.0, SVG Export Plug-In . SVG Version: 6.00 Build 0)  -->
<svg version="1.1" id="Capa_1" xmlns="http://www.w3.org/2000/svg" xmlns:xlink="http://www.w3.org/1999/xlink" x="0px" y="0px"
	 viewBox="0 0 490.2 490.2" style="enable-background:new 0 0 490.2 490.2;" xml:space="preserve">
<g>
	<g>
		<path d="M330.6,101.1h-48V20.9c0-11.5-9.4-20.9-20.9-20.9h-174C76.2,0,66.8,9.4,66.8,20.9v80.3H21c-11.5,0-20.9,9.4-20.9,20.9
			v347.2c0,11.5,9.4,20.9,20.9,20.9h308.6c11.5,0,20.9-9.4,21.9-20.9V122C351.4,110.5,342.1,101.1,330.6,101.1z M108.5,40.7h133.4
			v174.1H108.5V40.7z M309.7,449.3H41.8V142.8h25v73.3c-7.9,3-13.6,10.6-13.6,19.5c0,11.5,9.4,20.9,20.9,20.9h201.2
			c11.5,0,20.9-9.4,20.9-20.9c0-8.9-5.7-16.5-13.6-19.5v-73.3h27.1L309.7,449.3L309.7,449.3z"/>
		<path d="M108.5,287.7h-3.1c-11.5,0-20.9,9.4-20.9,20.9s9.4,20.9,20.9,20.9h3.1c11.5,0,20.9-9.4,20.9-20.9S120,287.7,108.5,287.7z"
			/>
		<path d="M245.1,287.7H242c-11.5,0-20.9,9.4-20.9,20.9s9.4,20.9,20.9,20.9h3.1c11.5,0,20.9-9.4,20.9-20.9S256.6,287.7,245.1,287.7z
			"/>
		<path d="M108.5,359.7h-3.1c-11.5,0-20.9,9.4-20.9,20.9s9.4,20.9,20.9,20.9h3.1c11.5,0,20.9-9.4,20.9-20.9S120,359.7,108.5,359.7z"
			/>
		<path d="M245.1,359.7H242c-11.5,0-20.9,9.4-20.9,20.9s9.4,20.9,20.9,20.9h3.1c11.5,0,20.9-9.4,20.9-20.9S256.6,359.7,245.1,359.7z
			"/>
		<path d="M469.2,101.1h-73c-11.5,0-20.9,9.4-20.9,20.9v347.2c0,11.5,9.4,20.9,20.9,20.9h73c11.5,0,20.9-9.4,20.9-20.9V122
			C490.1,110.5,480.7,101.1,469.2,101.1z M449.4,449.3h-32.3V142.8h32.3V449.3z"/>
	</g>
</g>
<g>
</g>
<g>
</g>
<g>
</g>
<g>
</g>
<g>
</g>
<g>
</g>
<g>
</g>
<g>
</g>
<g>
</g>
<g>
</g>
<g>
</g>
<g>
</g>
<g>
</g>
<g>
</g>
<g>
</g>
</svg>
